<?xml version="1.0" encoding="UTF-8"?>
<svg version="1.1" xmlns="http://www.w3.org/2000/svg" width="330" height="336">
<path d="M0 0 C108.9 0 217.8 0 330 0 C330 110.88 330 221.76 330 336 C221.1 336 112.2 336 0 336 C0 225.12 0 114.24 0 0 Z " fill="#FAFAFA" transform="translate(0,0)"/>
<path d="M0 0 C1.22203125 0.00386719 1.22203125 0.00386719 2.46875 0.0078125 C3.2834375 0.00523438 4.098125 0.00265625 4.9375 0 C6.96875 0.1328125 6.96875 0.1328125 7.96875 1.1328125 C8.05746273 4.16259054 8.0839435 7.16948272 8.06640625 10.19921875 C8.0649913 11.10784164 8.06357635 12.01646454 8.06211853 12.95262146 C8.05650193 15.86688471 8.04394665 18.78107231 8.03125 21.6953125 C8.02623714 23.66601452 8.02167386 25.63671774 8.01757812 27.60742188 C8.00652711 32.44924809 7.98925138 37.29101745 7.96875 42.1328125 C11.26875 42.1328125 14.56875 42.1328125 17.96875 42.1328125 C17.96351318 41.22926025 17.95827637 40.32570801 17.95288086 39.39477539 C17.93587314 36.05329761 17.92331667 32.71186558 17.91381836 29.37036133 C17.90877899 27.92211177 17.90194747 26.47386733 17.89331055 25.02563477 C17.88122753 22.94806662 17.87551789 20.87056553 17.87109375 18.79296875 C17.86585693 17.54136963 17.86062012 16.28977051 17.85522461 15.00024414 C17.96875 12.1328125 17.96875 12.1328125 18.96875 11.1328125 C20.65483966 11.06075739 22.34375659 11.04895182 24.03125 11.0703125 C24.95035156 11.07933594 25.86945313 11.08835937 26.81640625 11.09765625 C27.52667969 11.10925781 28.23695313 11.12085937 28.96875 11.1328125 C28.95714844 10.42253906 28.94554687 9.71226563 28.93359375 8.98046875 C28.92457031 8.06136719 28.91554688 7.14226562 28.90625 6.1953125 C28.89464844 5.27878906 28.88304687 4.36226563 28.87109375 3.41796875 C28.96875 1.1328125 28.96875 1.1328125 29.96875 0.1328125 C31.4574686 0.04611818 32.950195 0.02577756 34.44140625 0.03515625 C35.34052734 0.03837891 36.23964844 0.04160156 37.16601562 0.04492188 C38.58430664 0.05749023 38.58430664 0.05749023 40.03125 0.0703125 C41.4553418 0.07708008 41.4553418 0.07708008 42.90820312 0.08398438 C45.26178065 0.0958114 47.61523477 0.11229225 49.96875 0.1328125 C49.99762814 3.61196191 50.01550687 7.09108081 50.03125 10.5703125 C50.03962891 11.56353516 50.04800781 12.55675781 50.05664062 13.58007812 C50.05986328 14.52431641 50.06308594 15.46855469 50.06640625 16.44140625 C50.07164307 17.31595459 50.07687988 18.19050293 50.08227539 19.09155273 C49.96875 21.1328125 49.96875 21.1328125 48.96875 22.1328125 C47.44946962 22.20461214 45.92707518 22.21673257 44.40625 22.1953125 C43.57996094 22.18628906 42.75367188 22.17726563 41.90234375 22.16796875 C40.94521484 22.15056641 40.94521484 22.15056641 39.96875 22.1328125 C39.97398682 22.73343506 39.97922363 23.33405762 39.98461914 23.95288086 C40.00533014 26.65868088 40.01839125 29.36446427 40.03125 32.0703125 C40.03962891 33.01583984 40.04800781 33.96136719 40.05664062 34.93554688 C40.05986328 35.83466797 40.06308594 36.73378906 40.06640625 37.66015625 C40.07164307 38.49281006 40.07687988 39.32546387 40.08227539 40.18334961 C39.96875 42.1328125 39.96875 42.1328125 38.96875 43.1328125 C37.4800314 43.21950682 35.987305 43.23984744 34.49609375 43.23046875 C33.59697266 43.22724609 32.69785156 43.22402344 31.77148438 43.22070312 C30.35319336 43.20813477 30.35319336 43.20813477 28.90625 43.1953125 C27.4821582 43.18854492 27.4821582 43.18854492 26.02929688 43.18164062 C23.67571935 43.1698136 21.32226523 43.15333275 18.96875 43.1328125 C18.98035156 43.84308594 18.99195313 44.55335937 19.00390625 45.28515625 C19.01292969 46.20425781 19.02195312 47.12335938 19.03125 48.0703125 C19.04285156 48.98683594 19.05445313 49.90335938 19.06640625 50.84765625 C18.96875 53.1328125 18.96875 53.1328125 17.96875 54.1328125 C14.63256769 54.27538439 11.30899394 54.17509407 7.96875 54.1328125 C7.96875 57.4328125 7.96875 60.7328125 7.96875 64.1328125 C17.86875 63.6378125 17.86875 63.6378125 27.96875 63.1328125 C28.29875 60.1628125 28.62875 57.1928125 28.96875 54.1328125 C29.96875 53.1328125 29.96875 53.1328125 31.91821289 53.01928711 C32.7508667 53.02452393 33.58352051 53.02976074 34.44140625 53.03515625 C35.34052734 53.03837891 36.23964844 53.04160156 37.16601562 53.04492188 C38.58430664 53.05749023 38.58430664 53.05749023 40.03125 53.0703125 C41.4553418 53.07708008 41.4553418 53.07708008 42.90820312 53.08398438 C45.26174531 53.09581122 47.61525532 53.11374729 49.96875 53.1328125 C50.46375 58.0828125 50.46375 58.0828125 50.96875 63.1328125 C54.26875 63.4628125 57.56875 63.7928125 60.96875 64.1328125 C60.96875 57.2028125 60.96875 50.2728125 60.96875 43.1328125 C57.66875 43.1328125 54.36875 43.1328125 50.96875 43.1328125 C49.96875 42.1328125 49.96875 42.1328125 49.8359375 40.1015625 C49.83851563 39.286875 49.84109375 38.4721875 49.84375 37.6328125 C49.83988281 36.41078125 49.83988281 36.41078125 49.8359375 35.1640625 C49.96875 33.1328125 49.96875 33.1328125 50.96875 32.1328125 C57.56875 32.1328125 64.16875 32.1328125 70.96875 32.1328125 C70.96875 46.3228125 70.96875 60.5128125 70.96875 75.1328125 C64.03875 75.1328125 57.10875 75.1328125 49.96875 75.1328125 C50.00833259 81.669841 50.00833259 81.669841 50.05883789 88.20678711 C50.06133545 89.01639893 50.06383301 89.82601074 50.06640625 90.66015625 C50.07164307 91.49281006 50.07687988 92.32546387 50.08227539 93.18334961 C49.96875 95.1328125 49.96875 95.1328125 48.96875 96.1328125 C47.4800314 96.21950682 45.987305 96.23984744 44.49609375 96.23046875 C43.59697266 96.22724609 42.69785156 96.22402344 41.77148438 96.22070312 C40.35319336 96.20813477 40.35319336 96.20813477 38.90625 96.1953125 C37.4821582 96.18854492 37.4821582 96.18854492 36.02929688 96.18164062 C33.67575469 96.16981378 31.32224468 96.15187771 28.96875 96.1328125 C28.96875 99.4328125 28.96875 102.7328125 28.96875 106.1328125 C30.598125 106.1121875 32.2275 106.0915625 33.90625 106.0703125 C35.59374341 106.04895182 37.28266034 106.06075739 38.96875 106.1328125 C40.55812556 107.72218806 40.09856143 109.37181096 40.1015625 111.5703125 C40.10285156 112.46492188 40.10414063 113.35953125 40.10546875 114.28125 C40.10160156 115.22226563 40.09773438 116.16328125 40.09375 117.1328125 C40.09761719 118.07382813 40.10148437 119.01484375 40.10546875 119.984375 C40.10417969 120.87898438 40.10289062 121.77359375 40.1015625 122.6953125 C40.10043457 123.52160156 40.09930664 124.34789062 40.09814453 125.19921875 C39.96875 127.1328125 39.96875 127.1328125 38.96875 128.1328125 C35.63256769 128.27538439 32.30899394 128.17509407 28.96875 128.1328125 C28.96875 131.4328125 28.96875 134.7328125 28.96875 138.1328125 C35.89875 138.1328125 42.82875 138.1328125 49.96875 138.1328125 C50.29875 141.4328125 50.62875 144.7328125 50.96875 148.1328125 C53.93875 148.1328125 56.90875 148.1328125 59.96875 148.1328125 C60.29875 141.5328125 60.62875 134.9328125 60.96875 128.1328125 C57.66875 128.1328125 54.36875 128.1328125 50.96875 128.1328125 C50.63875 127.8028125 50.30875 127.4728125 49.96875 127.1328125 C49.96875 123.8328125 49.96875 120.5328125 49.96875 117.1328125 C60.52875 117.1328125 71.08875 117.1328125 81.96875 117.1328125 C81.96875 106.5728125 81.96875 96.0128125 81.96875 85.1328125 C85.26875 85.1328125 88.56875 85.1328125 91.96875 85.1328125 C94.57216656 87.73622906 92.96875 92.45102549 92.96875 96.1328125 C99.89875 96.1328125 106.82875 96.1328125 113.96875 96.1328125 C113.99166238 100.52944283 114.01158833 104.92586738 114.02368164 109.32250977 C114.02872121 110.81926168 114.03555287 112.31600866 114.04418945 113.81274414 C114.05627159 115.95981057 114.06198191 118.10681212 114.06640625 120.25390625 C114.07164307 121.5473999 114.07687988 122.84089355 114.08227539 124.17358398 C113.96875 127.1328125 113.96875 127.1328125 112.96875 128.1328125 C111.4800314 128.21950682 109.987305 128.23984744 108.49609375 128.23046875 C107.59697266 128.22724609 106.69785156 128.22402344 105.77148438 128.22070312 C104.82595703 128.21232422 103.88042969 128.20394531 102.90625 128.1953125 C101.4821582 128.18854492 101.4821582 128.18854492 100.02929688 128.18164062 C97.67575469 128.16981378 95.32224468 128.15187771 92.96875 128.1328125 C92.96875 131.4328125 92.96875 134.7328125 92.96875 138.1328125 C96.26875 138.1328125 99.56875 138.1328125 102.96875 138.1328125 C103.29875 141.4328125 103.62875 144.7328125 103.96875 148.1328125 C107.26875 148.4628125 110.56875 148.7928125 113.96875 149.1328125 C113.96875 152.7628125 113.96875 156.3928125 113.96875 160.1328125 C117.26875 159.8028125 120.56875 159.4728125 123.96875 159.1328125 C124.29875 148.9028125 124.62875 138.6728125 124.96875 128.1328125 C128.26875 128.1328125 131.56875 128.1328125 134.96875 128.1328125 C135.29875 134.7328125 135.62875 141.3328125 135.96875 148.1328125 C139.26875 148.4628125 142.56875 148.7928125 145.96875 149.1328125 C145.96875 152.7628125 145.96875 156.3928125 145.96875 160.1328125 C149.59875 160.1328125 153.22875 160.1328125 156.96875 160.1328125 C156.96875 173.9928125 156.96875 187.8528125 156.96875 202.1328125 C160.26875 202.1328125 163.56875 202.1328125 166.96875 202.1328125 C166.9378125 199.93625 166.9378125 199.93625 166.90625 197.6953125 C166.88482993 196.17448732 166.89695036 194.65209288 166.96875 193.1328125 C167.96875 192.1328125 167.96875 192.1328125 170 192 C170.8146875 192.00257813 171.629375 192.00515625 172.46875 192.0078125 C173.2834375 192.00523437 174.098125 192.00265625 174.9375 192 C176.96875 192.1328125 176.96875 192.1328125 177.96875 193.1328125 C178.11068337 196.13612268 178.01111378 199.12498384 177.96875 202.1328125 C181.26875 202.1328125 184.56875 202.1328125 187.96875 202.1328125 C187.95714844 200.70066406 187.94554687 199.26851562 187.93359375 197.79296875 C187.92421745 195.92708463 187.91511708 194.06119911 187.90625 192.1953125 C187.89787109 191.24978516 187.88949219 190.30425781 187.88085938 189.33007812 C187.87602539 187.98139648 187.87602539 187.98139648 187.87109375 186.60546875 C187.86323853 185.35648804 187.86323853 185.35648804 187.85522461 184.08227539 C187.96875 182.1328125 187.96875 182.1328125 188.96875 181.1328125 C192.26875 181.1328125 195.56875 181.1328125 198.96875 181.1328125 C198.96875 188.0628125 198.96875 194.9928125 198.96875 202.1328125 C195.66875 202.1328125 192.36875 202.1328125 188.96875 202.1328125 C188.96875 209.3928125 188.96875 216.6528125 188.96875 224.1328125 C192.26875 224.1328125 195.56875 224.1328125 198.96875 224.1328125 C198.96875 234.3628125 198.96875 244.5928125 198.96875 255.1328125 C195.33875 255.1328125 191.70875 255.1328125 187.96875 255.1328125 C187.96875 251.8328125 187.96875 248.5328125 187.96875 245.1328125 C177.73875 245.1328125 167.50875 245.1328125 156.96875 245.1328125 C156.96875 248.4328125 156.96875 251.7328125 156.96875 255.1328125 C149.70875 255.1328125 142.44875 255.1328125 134.96875 255.1328125 C134.96875 251.8328125 134.96875 248.5328125 134.96875 245.1328125 C138.26875 244.8028125 141.56875 244.4728125 144.96875 244.1328125 C145.29875 240.8328125 145.62875 237.5328125 145.96875 234.1328125 C149.26875 234.1328125 152.56875 234.1328125 155.96875 234.1328125 C155.96875 230.8328125 155.96875 227.5328125 155.96875 224.1328125 C149.03875 224.1328125 142.10875 224.1328125 134.96875 224.1328125 C134.96875 227.4328125 134.96875 230.7328125 134.96875 234.1328125 C131.99875 234.4628125 129.02875 234.7928125 125.96875 235.1328125 C125.63875 241.7328125 125.30875 248.3328125 124.96875 255.1328125 C117.70875 255.1328125 110.44875 255.1328125 102.96875 255.1328125 C102.96875 251.8328125 102.96875 248.5328125 102.96875 245.1328125 C106.26875 244.8028125 109.56875 244.4728125 112.96875 244.1328125 C113.1853125 241.93625 113.1853125 241.93625 113.40625 239.6953125 C113.84375 235.2578125 113.84375 235.2578125 114.96875 234.1328125 C117.97206018 233.99087913 120.96092134 234.09044872 123.96875 234.1328125 C123.96875 230.8328125 123.96875 227.5328125 123.96875 224.1328125 C120.66875 224.1328125 117.36875 224.1328125 113.96875 224.1328125 C113.9996875 226.329375 113.9996875 226.329375 114.03125 228.5703125 C114.05267007 230.09113768 114.04054964 231.61353212 113.96875 233.1328125 C112.96875 234.1328125 112.96875 234.1328125 109.09155273 234.24633789 C107.36180833 234.24617871 105.63205919 234.24048099 103.90234375 234.23046875 C102.99372086 234.2290538 102.08509796 234.22763885 101.14894104 234.22618103 C98.23467779 234.22056443 95.32049019 234.20800915 92.40625 234.1953125 C90.43554798 234.19029964 88.46484476 234.18573636 86.49414062 234.18164062 C81.65231441 234.17058961 76.81054505 234.15331388 71.96875 234.1328125 C71.96875 237.7628125 71.96875 241.3928125 71.96875 245.1328125 C78.89875 245.1328125 85.82875 245.1328125 92.96875 245.1328125 C92.96875 248.4328125 92.96875 251.7328125 92.96875 255.1328125 C82.40875 255.1328125 71.84875 255.1328125 60.96875 255.1328125 C60.96875 251.8328125 60.96875 248.5328125 60.96875 245.1328125 C57.33875 245.1328125 53.70875 245.1328125 49.96875 245.1328125 C49.96875 248.4328125 49.96875 251.7328125 49.96875 255.1328125 C46.66875 255.1328125 43.36875 255.1328125 39.96875 255.1328125 C39.96875 251.8328125 39.96875 248.5328125 39.96875 245.1328125 C36.33875 245.1328125 32.70875 245.1328125 28.96875 245.1328125 C28.96875 227.6428125 28.96875 210.1528125 28.96875 192.1328125 C32.59875 192.1328125 36.22875 192.1328125 39.96875 192.1328125 C39.96875 205.9928125 39.96875 219.8528125 39.96875 234.1328125 C46.89875 234.1328125 53.82875 234.1328125 60.96875 234.1328125 C60.96875 227.2028125 60.96875 220.2728125 60.96875 213.1328125 C57.66875 213.1328125 54.36875 213.1328125 50.96875 213.1328125 C49.96875 212.1328125 49.96875 212.1328125 49.8359375 210.1015625 C49.83851563 209.286875 49.84109375 208.4721875 49.84375 207.6328125 C49.83988281 206.41078125 49.83988281 206.41078125 49.8359375 205.1640625 C49.96875 203.1328125 49.96875 203.1328125 50.96875 202.1328125 C52.4574686 202.04611818 53.950195 202.02577756 55.44140625 202.03515625 C56.25101807 202.03765381 57.06062988 202.04015137 57.89477539 202.04272461 C58.92981201 202.05182861 59.96484863 202.06093262 61.03125 202.0703125 C64.310625 202.0909375 67.59 202.1115625 70.96875 202.1328125 C71.29875 209.0628125 71.62875 215.9928125 71.96875 223.1328125 C82.19875 223.4628125 92.42875 223.7928125 102.96875 224.1328125 C102.96875 216.8728125 102.96875 209.6128125 102.96875 202.1328125 C99.66875 202.1328125 96.36875 202.1328125 92.96875 202.1328125 C92.96875 198.8328125 92.96875 195.5328125 92.96875 192.1328125 C96.26875 192.1328125 99.56875 192.1328125 102.96875 192.1328125 C102.96875 184.8728125 102.96875 177.6128125 102.96875 170.1328125 C96.03875 170.1328125 89.10875 170.1328125 81.96875 170.1328125 C81.96875 166.8328125 81.96875 163.5328125 81.96875 160.1328125 C85.26875 159.8028125 88.56875 159.4728125 91.96875 159.1328125 C92.29875 152.5328125 92.62875 145.9328125 92.96875 139.1328125 C89.33875 139.1328125 85.70875 139.1328125 81.96875 139.1328125 C81.96875 135.5028125 81.96875 131.8728125 81.96875 128.1328125 C78.66875 128.1328125 75.36875 128.1328125 71.96875 128.1328125 C71.97398682 129.06665771 71.97922363 130.00050293 71.98461914 130.96264648 C72.0016262 134.41594046 72.01418302 137.86919017 72.02368164 141.32250977 C72.02872121 142.81926168 72.03555287 144.31600866 72.04418945 145.81274414 C72.05627159 147.95981057 72.06198191 150.10681212 72.06640625 152.25390625 C72.07164307 153.5473999 72.07687988 154.84089355 72.08227539 156.17358398 C71.96875 159.1328125 71.96875 159.1328125 70.96875 160.1328125 C69.40702255 160.21966853 67.84145656 160.23983469 66.27734375 160.23046875 C65.42712646 160.22797119 64.57690918 160.22547363 63.70092773 160.22290039 C62.61368408 160.21379639 61.52644043 160.20469238 60.40625 160.1953125 C56.961875 160.1746875 53.5175 160.1540625 49.96875 160.1328125 C49.96875 167.0628125 49.96875 173.9928125 49.96875 181.1328125 C43.03875 181.1328125 36.10875 181.1328125 28.96875 181.1328125 C28.96875 174.2028125 28.96875 167.2728125 28.96875 160.1328125 C25.33875 160.1328125 21.70875 160.1328125 17.96875 160.1328125 C17.96875 163.4328125 17.96875 166.7328125 17.96875 170.1328125 C14.66875 170.1328125 11.36875 170.1328125 7.96875 170.1328125 C7.96875 177.3928125 7.96875 184.6528125 7.96875 192.1328125 C4.33875 192.1328125 0.70875 192.1328125 -3.03125 192.1328125 C-3.03125 195.4328125 -3.03125 198.7328125 -3.03125 202.1328125 C-1.401875 202.1121875 0.2275 202.0915625 1.90625 202.0703125 C3.59374341 202.04895182 5.28266034 202.06075739 6.96875 202.1328125 C8.55812556 203.72218806 8.09856143 205.37181096 8.1015625 207.5703125 C8.10285156 208.46492187 8.10414063 209.35953125 8.10546875 210.28125 C8.10160156 211.22226562 8.09773438 212.16328125 8.09375 213.1328125 C8.09761719 214.07382812 8.10148437 215.01484375 8.10546875 215.984375 C8.10417969 216.87898437 8.10289062 217.77359375 8.1015625 218.6953125 C8.10043457 219.52160156 8.09930664 220.34789062 8.09814453 221.19921875 C7.96875 223.1328125 7.96875 223.1328125 6.96875 224.1328125 C3.63256769 224.27538439 0.30899394 224.17509407 -3.03125 224.1328125 C-3.03125 227.4328125 -3.03125 230.7328125 -3.03125 234.1328125 C-1.401875 234.1121875 0.2275 234.0915625 1.90625 234.0703125 C3.59374341 234.04895182 5.28266034 234.06075739 6.96875 234.1328125 C7.96875 235.1328125 7.96875 235.1328125 8.08227539 237.08227539 C8.07442017 238.3312561 8.07442017 238.3312561 8.06640625 239.60546875 C8.06390869 240.41508057 8.06141113 241.22469238 8.05883789 242.05883789 C8.04973389 243.09387451 8.04062988 244.12891113 8.03125 245.1953125 C8.010625 248.4746875 7.99 251.7540625 7.96875 255.1328125 C-2.59125 255.1328125 -13.15125 255.1328125 -24.03125 255.1328125 C-24.03125 251.8328125 -24.03125 248.5328125 -24.03125 245.1328125 C-17.10125 245.1328125 -10.17125 245.1328125 -3.03125 245.1328125 C-3.36125 241.8328125 -3.69125 238.5328125 -4.03125 235.1328125 C-13.93125 234.6378125 -13.93125 234.6378125 -24.03125 234.1328125 C-24.03125 224.1328125 -24.03125 224.1328125 -23.03125 223.1328125 C-20.06125 223.1328125 -17.09125 223.1328125 -14.03125 223.1328125 C-14.03125 212.9028125 -14.03125 202.6728125 -14.03125 192.1328125 C-17.00125 192.1328125 -19.97125 192.1328125 -23.03125 192.1328125 C-24.03125 191.1328125 -24.03125 191.1328125 -24.14477539 188.17358398 C-24.13953857 186.88009033 -24.13430176 185.58659668 -24.12890625 184.25390625 C-24.1274913 183.5672438 -24.12607635 182.88058136 -24.12461853 182.17311096 C-24.11900479 179.97213449 -24.10645007 177.77125841 -24.09375 175.5703125 C-24.08873676 174.08138167 -24.08417355 172.59244926 -24.08007812 171.10351562 C-24.06903093 167.44658175 -24.05175713 163.78970692 -24.03125 160.1328125 C-27.66125 160.1328125 -31.29125 160.1328125 -35.03125 160.1328125 C-35.03125 163.4328125 -35.03125 166.7328125 -35.03125 170.1328125 C-38.66125 170.1328125 -42.29125 170.1328125 -46.03125 170.1328125 C-46.03125 166.8328125 -46.03125 163.5328125 -46.03125 160.1328125 C-49.33125 160.1328125 -52.63125 160.1328125 -56.03125 160.1328125 C-56.03125 163.4328125 -56.03125 166.7328125 -56.03125 170.1328125 C-62.96125 170.1328125 -69.89125 170.1328125 -77.03125 170.1328125 C-77.03125 166.8328125 -77.03125 163.5328125 -77.03125 160.1328125 C-74.06125 159.8028125 -71.09125 159.4728125 -68.03125 159.1328125 C-67.53625 143.7878125 -67.53625 143.7878125 -67.03125 128.1328125 C-63.40125 128.1328125 -59.77125 128.1328125 -56.03125 128.1328125 C-56.03125 131.4328125 -56.03125 134.7328125 -56.03125 138.1328125 C-54.59910156 138.12121094 -53.16695312 138.10960937 -51.69140625 138.09765625 C-49.82552213 138.08827995 -47.95963661 138.07917958 -46.09375 138.0703125 C-45.14822266 138.06193359 -44.20269531 138.05355469 -43.22851562 138.04492188 C-42.32939453 138.04169922 -41.43027344 138.03847656 -40.50390625 138.03515625 C-39.67125244 138.02991943 -38.83859863 138.02468262 -37.98071289 138.01928711 C-36.03125 138.1328125 -36.03125 138.1328125 -35.03125 139.1328125 C-35.03125 142.4328125 -35.03125 145.7328125 -35.03125 149.1328125 C-28.10125 149.1328125 -21.17125 149.1328125 -14.03125 149.1328125 C-14.03125 152.7628125 -14.03125 156.3928125 -14.03125 160.1328125 C-7.10125 159.8028125 -0.17125 159.4728125 6.96875 159.1328125 C7.29875 155.8328125 7.62875 152.5328125 7.96875 149.1328125 C6.53660156 149.14441406 5.10445313 149.15601563 3.62890625 149.16796875 C1.76302213 149.17734505 -0.10286339 149.18644542 -1.96875 149.1953125 C-2.91427734 149.20369141 -3.85980469 149.21207031 -4.83398438 149.22070312 C-5.73310547 149.22392578 -6.63222656 149.22714844 -7.55859375 149.23046875 C-8.39124756 149.23570557 -9.22390137 149.24094238 -10.08178711 149.24633789 C-12.03125 149.1328125 -12.03125 149.1328125 -13.03125 148.1328125 C-13.17382189 144.79663019 -13.07353157 141.47305644 -13.03125 138.1328125 C-16.66125 138.1328125 -20.29125 138.1328125 -24.03125 138.1328125 C-24.03125 134.8328125 -24.03125 131.5328125 -24.03125 128.1328125 C-30.96125 128.1328125 -37.89125 128.1328125 -45.03125 128.1328125 C-45.03125 124.5028125 -45.03125 120.8728125 -45.03125 117.1328125 C-41.73125 117.1328125 -38.43125 117.1328125 -35.03125 117.1328125 C-35.03125 113.8328125 -35.03125 110.5328125 -35.03125 107.1328125 C-36.46339844 107.14441406 -37.89554688 107.15601563 -39.37109375 107.16796875 C-41.23697787 107.17734505 -43.10286339 107.18644542 -44.96875 107.1953125 C-45.91427734 107.20369141 -46.85980469 107.21207031 -47.83398438 107.22070312 C-49.18266602 107.22553711 -49.18266602 107.22553711 -50.55859375 107.23046875 C-51.80757446 107.23832397 -51.80757446 107.23832397 -53.08178711 107.24633789 C-55.03125 107.1328125 -55.03125 107.1328125 -56.03125 106.1328125 C-56.03125 102.8328125 -56.03125 99.5328125 -56.03125 96.1328125 C-49.10125 96.1328125 -42.17125 96.1328125 -35.03125 96.1328125 C-35.03125 99.4328125 -35.03125 102.7328125 -35.03125 106.1328125 C-24.47125 106.1328125 -13.91125 106.1328125 -3.03125 106.1328125 C-3.03125 102.8328125 -3.03125 99.5328125 -3.03125 96.1328125 C-9.96125 96.1328125 -16.89125 96.1328125 -24.03125 96.1328125 C-24.36125 92.8328125 -24.69125 89.5328125 -25.03125 86.1328125 C-31.63125 85.8028125 -38.23125 85.4728125 -45.03125 85.1328125 C-45.03125 81.8328125 -45.03125 78.5328125 -45.03125 75.1328125 C-38.10125 75.1328125 -31.17125 75.1328125 -24.03125 75.1328125 C-24.03125 78.4328125 -24.03125 81.7328125 -24.03125 85.1328125 C-13.47125 85.1328125 -2.91125 85.1328125 7.96875 85.1328125 C7.96875 92.0628125 7.96875 98.9928125 7.96875 106.1328125 C11.26875 106.1328125 14.56875 106.1328125 17.96875 106.1328125 C17.96875 95.9028125 17.96875 85.6728125 17.96875 75.1328125 C14.99875 75.1328125 12.02875 75.1328125 8.96875 75.1328125 C8.30875 74.8028125 7.64875 74.4728125 6.96875 74.1328125 C6.96875 70.8328125 6.96875 67.5328125 6.96875 64.1328125 C3.66875 64.1328125 0.36875 64.1328125 -3.03125 64.1328125 C-3.010625 65.7621875 -2.99 67.3915625 -2.96875 69.0703125 C-2.94738932 70.75780591 -2.95919489 72.44672284 -3.03125 74.1328125 C-4.03125 75.1328125 -4.03125 75.1328125 -6.0625 75.265625 C-7.28453125 75.26175781 -7.28453125 75.26175781 -8.53125 75.2578125 C-9.3459375 75.26039063 -10.160625 75.26296875 -11 75.265625 C-13.03125 75.1328125 -13.03125 75.1328125 -14.03125 74.1328125 C-14.132387 71.11473187 -14.17093909 68.12000737 -14.1640625 65.1015625 C-14.16501923 64.19531128 -14.16597595 63.28906006 -14.16696167 62.35534668 C-14.16764353 60.43530203 -14.16578882 58.51525509 -14.16162109 56.59521484 C-14.15627292 53.64545546 -14.16156588 50.69584836 -14.16796875 47.74609375 C-14.16730797 45.88541633 -14.16602681 44.024739 -14.1640625 42.1640625 C-14.16608673 41.27553589 -14.16811096 40.38700928 -14.17019653 39.47155762 C-14.14619988 33.24776238 -14.14619988 33.24776238 -13.03125 32.1328125 C-11.34516034 32.06075739 -9.65624341 32.04895182 -7.96875 32.0703125 C-7.04964844 32.07933594 -6.13054687 32.08835937 -5.18359375 32.09765625 C-4.47332031 32.10925781 -3.76304688 32.12085937 -3.03125 32.1328125 C-3.03648682 31.19896729 -3.04172363 30.26512207 -3.04711914 29.30297852 C-3.0641262 25.84968454 -3.07668302 22.39643483 -3.08618164 18.94311523 C-3.09122121 17.44636332 -3.09805287 15.94961634 -3.10668945 14.45288086 C-3.11877159 12.30581443 -3.12448191 10.15881288 -3.12890625 8.01171875 C-3.13414307 6.7182251 -3.13937988 5.42473145 -3.14477539 4.09204102 C-2.99530503 0.19584687 -2.99530503 0.19584687 0 0 Z " fill="#050505" transform="translate(122.03125,70.8671875)"/>
<path d="M0 0 C3.3 0 6.6 0 10 0 C10.33 6.6 10.66 13.2 11 20 C14.3 20.33 17.6 20.66 21 21 C21 24.63 21 28.26 21 32 C24.63 32 28.26 32 32 32 C32 45.86 32 59.72 32 74 C35.3 74 38.6 74 42 74 C41.9690625 71.8034375 41.9690625 71.8034375 41.9375 69.5625 C41.91607993 68.04167482 41.92820036 66.51928038 42 65 C43 64 43 64 45.03125 63.8671875 C45.8459375 63.86976563 46.660625 63.87234375 47.5 63.875 C48.3146875 63.87242187 49.129375 63.86984375 49.96875 63.8671875 C52 64 52 64 53 65 C53.14193337 68.00331018 53.04236378 70.99217134 53 74 C56.3 74 59.6 74 63 74 C62.98839844 72.56785156 62.97679687 71.13570313 62.96484375 69.66015625 C62.95546745 67.79427213 62.94636708 65.92838661 62.9375 64.0625 C62.92912109 63.11697266 62.92074219 62.17144531 62.91210938 61.19726562 C62.90888672 60.29814453 62.90566406 59.39902344 62.90234375 58.47265625 C62.89710693 57.64000244 62.89187012 56.80734863 62.88647461 55.94946289 C63 54 63 54 64 53 C67.3 53 70.6 53 74 53 C74 59.93 74 66.86 74 74 C70.7 74 67.4 74 64 74 C64 81.26 64 88.52 64 96 C67.3 96 70.6 96 74 96 C74 106.23 74 116.46 74 127 C70.37 127 66.74 127 63 127 C63 123.7 63 120.4 63 117 C52.77 117 42.54 117 32 117 C32 120.3 32 123.6 32 127 C24.74 127 17.48 127 10 127 C10 123.7 10 120.4 10 117 C14.95 116.505 14.95 116.505 20 116 C20.33 112.7 20.66 109.4 21 106 C24.3 106 27.6 106 31 106 C31 102.7 31 99.4 31 96 C24.07 96 17.14 96 10 96 C10 99.3 10 102.6 10 106 C5.545 106.495 5.545 106.495 1 107 C0.67 113.6 0.34 120.2 0 127 C-7.26 127 -14.52 127 -22 127 C-22 123.7 -22 120.4 -22 117 C-17.05 116.505 -17.05 116.505 -12 116 C-11.855625 114.535625 -11.71125 113.07125 -11.5625 111.5625 C-11.125 107.125 -11.125 107.125 -10 106 C-6.99668982 105.85806663 -4.00782866 105.95763622 -1 106 C-1 102.7 -1 99.4 -1 96 C-4.3 96 -7.6 96 -11 96 C-10.979375 97.464375 -10.95875 98.92875 -10.9375 100.4375 C-10.91607993 101.95832518 -10.92820036 103.48071962 -11 105 C-12 106 -12 106 -15.87719727 106.11352539 C-17.60694167 106.11336621 -19.33669081 106.10766849 -21.06640625 106.09765625 C-21.97502914 106.0962413 -22.88365204 106.09482635 -23.81980896 106.09336853 C-26.73407221 106.08775193 -29.64825981 106.07519665 -32.5625 106.0625 C-34.53320202 106.05748714 -36.50390524 106.05292386 -38.47460938 106.04882812 C-43.31643559 106.03777711 -48.15820495 106.02050138 -53 106 C-53 109.63 -53 113.26 -53 117 C-46.07 117 -39.14 117 -32 117 C-32 120.3 -32 123.6 -32 127 C-42.56 127 -53.12 127 -64 127 C-64 123.7 -64 120.4 -64 117 C-67.63 117 -71.26 117 -75 117 C-75 120.3 -75 123.6 -75 127 C-78.3 127 -81.6 127 -85 127 C-85 123.7 -85 120.4 -85 117 C-88.63 117 -92.26 117 -96 117 C-96 99.51 -96 82.02 -96 64 C-92.37 64 -88.74 64 -85 64 C-85 77.86 -85 91.72 -85 106 C-78.07 106 -71.14 106 -64 106 C-64 99.07 -64 92.14 -64 85 C-67.3 85 -70.6 85 -74 85 C-75 84 -75 84 -75.1328125 81.96875 C-75.13023437 81.1540625 -75.12765625 80.339375 -75.125 79.5 C-75.12886719 78.27796875 -75.12886719 78.27796875 -75.1328125 77.03125 C-75 75 -75 75 -74 74 C-72.5112814 73.91330568 -71.018555 73.89296506 -69.52734375 73.90234375 C-68.71773193 73.90484131 -67.90812012 73.90733887 -67.07397461 73.90991211 C-66.03893799 73.91901611 -65.00390137 73.92812012 -63.9375 73.9375 C-60.658125 73.958125 -57.37875 73.97875 -54 74 C-53.505 84.395 -53.505 84.395 -53 95 C-42.77 95.33 -32.54 95.66 -22 96 C-22 88.74 -22 81.48 -22 74 C-25.3 74 -28.6 74 -32 74 C-32 70.7 -32 67.4 -32 64 C-28.7 64 -25.4 64 -22 64 C-22 56.74 -22 49.48 -22 42 C-28.93 42 -35.86 42 -43 42 C-43 38.7 -43 35.4 -43 32 C-39.7 31.67 -36.4 31.34 -33 31 C-32.67 24.4 -32.34 17.8 -32 11 C-28.7 11 -25.4 11 -22 11 C-21.505 15.455 -21.505 15.455 -21 20 C-17.7 20.33 -14.4 20.66 -11 21 C-11 24.63 -11 28.26 -11 32 C-7.7 31.67 -4.4 31.34 -1 31 C-0.67 20.77 -0.34 10.54 0 0 Z " fill="#040404" transform="translate(247,199)"/>
<path d="M0 0 C0.83265381 0.00523682 1.66530762 0.01047363 2.52319336 0.01586914 C3.33280518 0.0183667 4.14241699 0.02086426 4.9765625 0.0234375 C6.01159912 0.0325415 7.04663574 0.04164551 8.11303711 0.05102539 C11.39241211 0.07165039 14.67178711 0.09227539 18.05053711 0.11352539 C18.05053711 7.04352539 18.05053711 13.97352539 18.05053711 21.11352539 C14.75053711 21.11352539 11.45053711 21.11352539 8.05053711 21.11352539 C8.07116211 22.74290039 8.09178711 24.37227539 8.11303711 26.05102539 C8.13439779 27.7385188 8.12259222 29.42743573 8.05053711 31.11352539 C5.64683626 33.51722624 1.42909215 32.73813039 -1.94946289 33.11352539 C-2.27946289 39.71352539 -2.60946289 46.31352539 -2.94946289 53.11352539 C-6.24946289 53.11352539 -9.54946289 53.11352539 -12.94946289 53.11352539 C-12.94946289 56.74352539 -12.94946289 60.37352539 -12.94946289 64.11352539 C-9.64946289 64.11352539 -6.34946289 64.11352539 -2.94946289 64.11352539 C-2.97008789 62.48415039 -2.99071289 60.85477539 -3.01196289 59.17602539 C-3.03332357 57.48853198 -3.021518 55.79961505 -2.94946289 54.11352539 C-1.94946289 53.11352539 -1.94946289 53.11352539 0.33569336 53.01586914 C1.2522168 53.0274707 2.16874023 53.03907227 3.11303711 53.05102539 C4.03213867 53.06004883 4.95124023 53.06907227 5.89819336 53.07836914 C6.6084668 53.0899707 7.31874023 53.10157227 8.05053711 53.11352539 C8.07518285 59.07665706 8.09337111 65.03975934 8.10546875 71.00292969 C8.11050989 73.03320837 8.11734268 75.06348341 8.12597656 77.09375 C8.13805178 80.00529886 8.14376745 82.91679989 8.14819336 85.82836914 C8.15335464 86.74190659 8.15851593 87.65544403 8.16383362 88.59666443 C8.16402879 90.76927966 8.11265516 92.94179835 8.05053711 95.11352539 C7.05053711 96.11352539 7.05053711 96.11352539 4.76538086 96.21118164 C2.19376628 96.17862956 -0.37784831 96.14607747 -2.94946289 96.11352539 C-2.45446289 101.06352539 -2.45446289 101.06352539 -1.94946289 106.11352539 C1.02053711 106.44352539 3.99053711 106.77352539 7.05053711 107.11352539 C7.05053711 110.41352539 7.05053711 113.71352539 7.05053711 117.11352539 C3.75053711 117.11352539 0.45053711 117.11352539 -2.94946289 117.11352539 C-2.94946289 127.67352539 -2.94946289 138.23352539 -2.94946289 149.11352539 C-13.50946289 149.11352539 -24.06946289 149.11352539 -34.94946289 149.11352539 C-34.61946289 152.41352539 -34.28946289 155.71352539 -33.94946289 159.11352539 C-30.64946289 159.44352539 -27.34946289 159.77352539 -23.94946289 160.11352539 C-23.92262853 163.42607865 -23.90270509 166.73841722 -23.88696289 170.05102539 C-23.87858398 170.99655273 -23.87020508 171.94208008 -23.86157227 172.91625977 C-23.85834961 173.81538086 -23.85512695 174.71450195 -23.85180664 175.64086914 C-23.84656982 176.47352295 -23.84133301 177.30617676 -23.8359375 178.1640625 C-23.94946289 180.11352539 -23.94946289 180.11352539 -24.94946289 181.11352539 C-26.44684413 181.21143109 -27.94889181 181.24327403 -29.44946289 181.23852539 C-30.26415039 181.24110352 -31.07883789 181.24368164 -31.91821289 181.24633789 C-33.94946289 181.11352539 -33.94946289 181.11352539 -34.94946289 180.11352539 C-34.94946289 176.81352539 -34.94946289 173.51352539 -34.94946289 170.11352539 C-41.87946289 170.11352539 -48.80946289 170.11352539 -55.94946289 170.11352539 C-55.94946289 166.81352539 -55.94946289 163.51352539 -55.94946289 160.11352539 C-52.64946289 159.78352539 -49.34946289 159.45352539 -45.94946289 159.11352539 C-45.94946289 152.51352539 -45.94946289 145.91352539 -45.94946289 139.11352539 C-49.24946289 138.78352539 -52.54946289 138.45352539 -55.94946289 138.11352539 C-55.94946289 134.81352539 -55.94946289 131.51352539 -55.94946289 128.11352539 C-46.04946289 127.61852539 -46.04946289 127.61852539 -35.94946289 127.11352539 C-35.61946289 120.51352539 -35.28946289 113.91352539 -34.94946289 107.11352539 C-28.01946289 107.11352539 -21.08946289 107.11352539 -13.94946289 107.11352539 C-13.94946289 92.92352539 -13.94946289 78.73352539 -13.94946289 64.11352539 C-23.84946289 64.60852539 -23.84946289 64.60852539 -33.94946289 65.11352539 C-33.94946289 68.08352539 -33.94946289 71.05352539 -33.94946289 74.11352539 C-30.64946289 74.44352539 -27.34946289 74.77352539 -23.94946289 75.11352539 C-23.94946289 82.04352539 -23.94946289 88.97352539 -23.94946289 96.11352539 C-27.24946289 96.11352539 -30.54946289 96.11352539 -33.94946289 96.11352539 C-34.27946289 95.78352539 -34.60946289 95.45352539 -34.94946289 95.11352539 C-34.94946289 91.81352539 -34.94946289 88.51352539 -34.94946289 85.11352539 C-44.84946289 85.60852539 -44.84946289 85.60852539 -54.94946289 86.11352539 C-55.27946289 89.08352539 -55.60946289 92.05352539 -55.94946289 95.11352539 C-56.94946289 96.11352539 -56.94946289 96.11352539 -58.89892578 96.22705078 C-59.73157959 96.22181396 -60.5642334 96.21657715 -61.42211914 96.21118164 C-62.32124023 96.20795898 -63.22036133 96.20473633 -64.14672852 96.20141602 C-65.56501953 96.18884766 -65.56501953 96.18884766 -67.01196289 96.17602539 C-67.96135742 96.17151367 -68.91075195 96.16700195 -69.88891602 96.16235352 C-72.2424582 96.15052667 -74.59596821 96.1325906 -76.94946289 96.11352539 C-76.94946289 92.81352539 -76.94946289 89.51352539 -76.94946289 86.11352539 C-71.99946289 85.61852539 -71.99946289 85.61852539 -66.94946289 85.11352539 C-66.61946289 81.81352539 -66.28946289 78.51352539 -65.94946289 75.11352539 C-56.04946289 74.61852539 -56.04946289 74.61852539 -45.94946289 74.11352539 C-45.61946289 67.51352539 -45.28946289 60.91352539 -44.94946289 54.11352539 C-40.49446289 53.61852539 -40.49446289 53.61852539 -35.94946289 53.11352539 C-35.61946289 46.18352539 -35.28946289 39.25352539 -34.94946289 32.11352539 C-31.64946289 32.11352539 -28.34946289 32.11352539 -24.94946289 32.11352539 C-23.94946289 33.11352539 -23.94946289 33.11352539 -23.8359375 35.06298828 C-23.84117432 35.89564209 -23.84641113 36.7282959 -23.85180664 37.58618164 C-23.8550293 38.48530273 -23.85825195 39.38442383 -23.86157227 40.31079102 C-23.87414062 41.72908203 -23.87414062 41.72908203 -23.88696289 43.17602539 C-23.89147461 44.12541992 -23.89598633 45.07481445 -23.90063477 46.05297852 C-23.91246161 48.4065207 -23.93039768 50.76003071 -23.94946289 53.11352539 C-20.64946289 53.11352539 -17.34946289 53.11352539 -13.94946289 53.11352539 C-13.96106445 51.68137695 -13.97266602 50.24922852 -13.98461914 48.77368164 C-13.99399544 46.90779752 -14.00309581 45.041912 -14.01196289 43.17602539 C-14.0203418 42.23049805 -14.0287207 41.2849707 -14.03735352 40.31079102 C-14.04057617 39.41166992 -14.04379883 38.51254883 -14.04711914 37.58618164 C-14.05235596 36.75352783 -14.05759277 35.92087402 -14.06298828 35.06298828 C-13.94946289 33.11352539 -13.94946289 33.11352539 -12.94946289 32.11352539 C-11.26337323 32.04147028 -9.5744563 32.02966471 -7.88696289 32.05102539 C-6.96786133 32.06004883 -6.04875977 32.06907227 -5.10180664 32.07836914 C-4.3915332 32.0899707 -3.68125977 32.10157227 -2.94946289 32.11352539 C-2.95469971 31.17968018 -2.95993652 30.24583496 -2.96533203 29.28369141 C-2.98233909 25.83039743 -2.99489591 22.37714772 -3.00439453 18.92382812 C-3.0094341 17.42707621 -3.01626576 15.93032923 -3.02490234 14.43359375 C-3.03698448 12.28652732 -3.0426948 10.13952577 -3.04711914 7.99243164 C-3.05235596 6.69893799 -3.05759277 5.40544434 -3.06298828 4.07275391 C-2.91325287 0.16965092 -2.91325287 0.16965092 0 0 Z " fill="#FAFAFA" transform="translate(206.949462890625,38.886474609375)"/>
<path d="M0 0 C24.42 0 48.84 0 74 0 C74 24.42 74 48.84 74 74 C49.58 74 25.16 74 0 74 C0 49.58 0 25.16 0 0 Z " fill="#FAFAFA" transform="translate(13,252)"/>
<path d="M0 0 C24.42 0 48.84 0 74 0 C74 24.42 74 48.84 74 74 C49.58 74 25.16 74 0 74 C0 49.58 0 25.16 0 0 Z " fill="#F2F2F2" transform="translate(247,18)"/>
<path d="M0 0 C24.42 0 48.84 0 74 0 C74 24.42 74 48.84 74 74 C49.58 74 25.16 74 0 74 C0 49.58 0 25.16 0 0 Z " fill="#F2F2F2" transform="translate(13,18)"/>
<path d="M0 0 C0.8146875 0.00257812 1.629375 0.00515625 2.46875 0.0078125 C3.2834375 0.00523438 4.098125 0.00265625 4.9375 0 C6.96875 0.1328125 6.96875 0.1328125 7.96875 1.1328125 C8.05746273 4.16259054 8.0839435 7.16948272 8.06640625 10.19921875 C8.0649913 11.10784164 8.06357635 12.01646454 8.06211853 12.95262146 C8.05650193 15.86688471 8.04394665 18.78107231 8.03125 21.6953125 C8.02623714 23.66601452 8.02167386 25.63671774 8.01757812 27.60742188 C8.00652711 32.44924809 7.98925138 37.29101745 7.96875 42.1328125 C11.26875 42.1328125 14.56875 42.1328125 17.96875 42.1328125 C17.96089478 40.77748413 17.96089478 40.77748413 17.95288086 39.39477539 C17.93587314 36.05329761 17.92331667 32.71186558 17.91381836 29.37036133 C17.90877899 27.92211177 17.90194747 26.47386733 17.89331055 25.02563477 C17.88122753 22.94806662 17.87551789 20.87056553 17.87109375 18.79296875 C17.86585693 17.54136963 17.86062012 16.28977051 17.85522461 15.00024414 C17.96875 12.1328125 17.96875 12.1328125 18.96875 11.1328125 C20.65483966 11.06075739 22.34375659 11.04895182 24.03125 11.0703125 C24.95035156 11.07933594 25.86945313 11.08835937 26.81640625 11.09765625 C27.52667969 11.10925781 28.23695313 11.12085937 28.96875 11.1328125 C28.95714844 10.42253906 28.94554687 9.71226563 28.93359375 8.98046875 C28.92457031 8.06136719 28.91554687 7.14226562 28.90625 6.1953125 C28.89464844 5.27878906 28.88304687 4.36226563 28.87109375 3.41796875 C28.96875 1.1328125 28.96875 1.1328125 29.96875 0.1328125 C31.4574686 0.04611818 32.950195 0.02577756 34.44140625 0.03515625 C35.34052734 0.03837891 36.23964844 0.04160156 37.16601562 0.04492188 C38.58430664 0.05749023 38.58430664 0.05749023 40.03125 0.0703125 C40.98064453 0.07482422 41.93003906 0.07933594 42.90820312 0.08398438 C45.26178065 0.0958114 47.61523477 0.11229225 49.96875 0.1328125 C49.99762814 3.61196191 50.01550687 7.09108081 50.03125 10.5703125 C50.03962891 11.56353516 50.04800781 12.55675781 50.05664062 13.58007812 C50.05986328 14.52431641 50.06308594 15.46855469 50.06640625 16.44140625 C50.07164307 17.31595459 50.07687988 18.19050293 50.08227539 19.09155273 C49.96875 21.1328125 49.96875 21.1328125 48.96875 22.1328125 C47.44946962 22.20461214 45.92707518 22.21673257 44.40625 22.1953125 C43.57996094 22.18628906 42.75367188 22.17726563 41.90234375 22.16796875 C40.94521484 22.15056641 40.94521484 22.15056641 39.96875 22.1328125 C39.97398682 22.73343506 39.97922363 23.33405762 39.98461914 23.95288086 C40.00533014 26.65868088 40.01839125 29.36446427 40.03125 32.0703125 C40.03962891 33.01583984 40.04800781 33.96136719 40.05664062 34.93554688 C40.05986328 35.83466797 40.06308594 36.73378906 40.06640625 37.66015625 C40.07164307 38.49281006 40.07687988 39.32546387 40.08227539 40.18334961 C39.96875 42.1328125 39.96875 42.1328125 38.96875 43.1328125 C37.4800314 43.21950682 35.987305 43.23984744 34.49609375 43.23046875 C33.59697266 43.22724609 32.69785156 43.22402344 31.77148438 43.22070312 C30.35319336 43.20813477 30.35319336 43.20813477 28.90625 43.1953125 C27.95685547 43.19080078 27.00746094 43.18628906 26.02929688 43.18164062 C23.67571935 43.1698136 21.32226523 43.15333275 18.96875 43.1328125 C18.98035156 43.84308594 18.99195313 44.55335937 19.00390625 45.28515625 C19.01292969 46.20425781 19.02195313 47.12335938 19.03125 48.0703125 C19.04285156 48.98683594 19.05445313 49.90335938 19.06640625 50.84765625 C18.96875 53.1328125 18.96875 53.1328125 17.96875 54.1328125 C14.63256769 54.27538439 11.30899394 54.17509407 7.96875 54.1328125 C7.96875 57.4328125 7.96875 60.7328125 7.96875 64.1328125 C17.86875 63.6378125 17.86875 63.6378125 27.96875 63.1328125 C28.29875 60.1628125 28.62875 57.1928125 28.96875 54.1328125 C29.96875 53.1328125 29.96875 53.1328125 31.91821289 53.01928711 C32.7508667 53.02452393 33.58352051 53.02976074 34.44140625 53.03515625 C35.34052734 53.03837891 36.23964844 53.04160156 37.16601562 53.04492188 C38.58430664 53.05749023 38.58430664 53.05749023 40.03125 53.0703125 C40.98064453 53.07482422 41.93003906 53.07933594 42.90820312 53.08398438 C45.26174531 53.09581122 47.61525532 53.11374729 49.96875 53.1328125 C50.46375 58.0828125 50.46375 58.0828125 50.96875 63.1328125 C54.26875 63.4628125 57.56875 63.7928125 60.96875 64.1328125 C60.96875 57.2028125 60.96875 50.2728125 60.96875 43.1328125 C57.66875 43.1328125 54.36875 43.1328125 50.96875 43.1328125 C49.96875 42.1328125 49.96875 42.1328125 49.8359375 40.1015625 C49.83851563 39.286875 49.84109375 38.4721875 49.84375 37.6328125 C49.83988281 36.41078125 49.83988281 36.41078125 49.8359375 35.1640625 C49.96875 33.1328125 49.96875 33.1328125 50.96875 32.1328125 C57.56875 32.1328125 64.16875 32.1328125 70.96875 32.1328125 C70.96875 46.3228125 70.96875 60.5128125 70.96875 75.1328125 C64.03875 75.1328125 57.10875 75.1328125 49.96875 75.1328125 C50.00833259 81.669841 50.00833259 81.669841 50.05883789 88.20678711 C50.06133545 89.01639893 50.06383301 89.82601074 50.06640625 90.66015625 C50.07164307 91.49281006 50.07687988 92.32546387 50.08227539 93.18334961 C49.96875 95.1328125 49.96875 95.1328125 48.96875 96.1328125 C47.4800314 96.21950682 45.987305 96.23984744 44.49609375 96.23046875 C43.59697266 96.22724609 42.69785156 96.22402344 41.77148438 96.22070312 C40.35319336 96.20813477 40.35319336 96.20813477 38.90625 96.1953125 C37.95685547 96.19080078 37.00746094 96.18628906 36.02929688 96.18164062 C33.67575469 96.16981378 31.32224468 96.15187771 28.96875 96.1328125 C28.96875 99.4328125 28.96875 102.7328125 28.96875 106.1328125 C30.598125 106.1121875 32.2275 106.0915625 33.90625 106.0703125 C35.59374341 106.04895182 37.28266034 106.06075739 38.96875 106.1328125 C40.55812556 107.72218806 40.09856143 109.37181096 40.1015625 111.5703125 C40.10349609 112.91222656 40.10349609 112.91222656 40.10546875 114.28125 C40.10160156 115.22226563 40.09773438 116.16328125 40.09375 117.1328125 C40.09955078 118.54433594 40.09955078 118.54433594 40.10546875 119.984375 C40.10417969 120.87898438 40.10289062 121.77359375 40.1015625 122.6953125 C40.10043457 123.52160156 40.09930664 124.34789062 40.09814453 125.19921875 C39.96875 127.1328125 39.96875 127.1328125 38.96875 128.1328125 C35.66875 128.1328125 32.36875 128.1328125 28.96875 128.1328125 C28.96875 121.2028125 28.96875 114.2728125 28.96875 107.1328125 C22.03875 107.1328125 15.10875 107.1328125 7.96875 107.1328125 C7.96875 106.8028125 7.96875 106.4728125 7.96875 106.1328125 C11.26875 106.1328125 14.56875 106.1328125 17.96875 106.1328125 C17.96875 95.9028125 17.96875 85.6728125 17.96875 75.1328125 C14.99875 75.1328125 12.02875 75.1328125 8.96875 75.1328125 C8.30875 74.8028125 7.64875 74.4728125 6.96875 74.1328125 C6.96875 70.8328125 6.96875 67.5328125 6.96875 64.1328125 C3.66875 64.1328125 0.36875 64.1328125 -3.03125 64.1328125 C-3.010625 65.7621875 -2.99 67.3915625 -2.96875 69.0703125 C-2.94738932 70.75780591 -2.95919489 72.44672284 -3.03125 74.1328125 C-4.03125 75.1328125 -4.03125 75.1328125 -6.0625 75.265625 C-6.8771875 75.26304687 -7.691875 75.26046875 -8.53125 75.2578125 C-9.3459375 75.26039063 -10.160625 75.26296875 -11 75.265625 C-13.03125 75.1328125 -13.03125 75.1328125 -14.03125 74.1328125 C-14.132387 71.11473187 -14.17093909 68.12000737 -14.1640625 65.1015625 C-14.16501923 64.19531128 -14.16597595 63.28906006 -14.16696167 62.35534668 C-14.16764353 60.43530203 -14.16578882 58.51525509 -14.16162109 56.59521484 C-14.15627292 53.64545546 -14.16156588 50.69584836 -14.16796875 47.74609375 C-14.16730797 45.88541633 -14.16602681 44.024739 -14.1640625 42.1640625 C-14.16608673 41.27553589 -14.16811096 40.38700928 -14.17019653 39.47155762 C-14.14619988 33.24776238 -14.14619988 33.24776238 -13.03125 32.1328125 C-11.34516034 32.06075739 -9.65624341 32.04895182 -7.96875 32.0703125 C-7.04964844 32.07933594 -6.13054687 32.08835937 -5.18359375 32.09765625 C-4.47332031 32.10925781 -3.76304688 32.12085937 -3.03125 32.1328125 C-3.03648682 31.19896729 -3.04172363 30.26512207 -3.04711914 29.30297852 C-3.0641262 25.84968454 -3.07668302 22.39643483 -3.08618164 18.94311523 C-3.09122121 17.44636332 -3.09805287 15.94961634 -3.10668945 14.45288086 C-3.11877159 12.30581443 -3.12448191 10.15881288 -3.12890625 8.01171875 C-3.13414307 6.7182251 -3.13937988 5.42473145 -3.14477539 4.09204102 C-2.99530503 0.19584687 -2.99530503 0.19584687 0 0 Z " fill="#030303" transform="translate(122.03125,70.8671875)"/>
<path d="M0 0 C3.3 0 6.6 0 10 0 C10 3.63 10 7.26 10 11 C13.63 11 17.26 11 21 11 C21.02683436 14.31255326 21.0467578 17.62489183 21.0625 20.9375 C21.07087891 21.88302734 21.07925781 22.82855469 21.08789062 23.80273438 C21.09111328 24.70185547 21.09433594 25.60097656 21.09765625 26.52734375 C21.10289307 27.35999756 21.10812988 28.19265137 21.11352539 29.05053711 C21 31 21 31 20 32 C16.66381769 32.14257189 13.34024394 32.04228157 10 32 C10 35.3 10 38.6 10 42 C16.93 42 23.86 42 31 42 C31 49.26 31 56.52 31 64 C27.7 64 24.4 64 21 64 C21 67.3 21 70.6 21 74 C24.3 74 27.6 74 31 74 C31 81.26 31 88.52 31 96 C26.60336967 96.02291238 22.20694512 96.04283833 17.81030273 96.05493164 C16.31355082 96.05997121 14.81680384 96.06680287 13.32006836 96.07543945 C11.17300193 96.08752159 9.02600038 96.09323191 6.87890625 96.09765625 C4.93866577 96.10551147 4.93866577 96.10551147 2.95922852 96.11352539 C0 96 0 96 -1 95 C-1.08685603 93.43827255 -1.10702219 91.87270656 -1.09765625 90.30859375 C-1.09443359 89.36435547 -1.09121094 88.42011719 -1.08789062 87.44726562 C-1.07532227 85.95743164 -1.07532227 85.95743164 -1.0625 84.4375 C-1.05798828 83.44041016 -1.05347656 82.44332031 -1.04882812 81.41601562 C-1.03700023 78.94398513 -1.01906415 76.47198528 -1 74 C-10.9 74.495 -10.9 74.495 -21 75 C-21 77.97 -21 80.94 -21 84 C-17.7 84.33 -14.4 84.66 -11 85 C-11 91.93 -11 98.86 -11 106 C-17.93 106 -24.86 106 -32 106 C-32.495 85.21 -32.495 85.21 -33 64 C-36.3 63.67 -39.6 63.34 -43 63 C-43 59.7 -43 56.4 -43 53 C-36.07 53 -29.14 53 -22 53 C-22 46.07 -22 39.14 -22 32 C-11.605 31.505 -11.605 31.505 -1 31 C-0.67 20.77 -0.34 10.54 0 0 Z " fill="#FBFBFB" transform="translate(194,199)"/>
<path d="M0 0 C3.3 0 6.6 0 10 0 C12.60341656 2.60341656 11 7.31821299 11 11 C17.93 11 24.86 11 32 11 C32.02291238 15.39663033 32.04283833 19.79305488 32.05493164 24.18969727 C32.05997121 25.68644918 32.06680287 27.18319616 32.07543945 28.67993164 C32.08752159 30.82699807 32.09323191 32.97399962 32.09765625 35.12109375 C32.10289307 36.4145874 32.10812988 37.70808105 32.11352539 39.04077148 C32 42 32 42 31 43 C29.5112814 43.08669432 28.018555 43.10703494 26.52734375 43.09765625 C25.62822266 43.09443359 24.72910156 43.09121094 23.80273438 43.08789062 C22.38444336 43.07532227 22.38444336 43.07532227 20.9375 43.0625 C19.5134082 43.05573242 19.5134082 43.05573242 18.06054688 43.04882812 C15.70700469 43.03700128 13.35349468 43.01906521 11 43 C11 46.3 11 49.6 11 53 C14.3 53 17.6 53 21 53 C21 53.33 21 53.66 21 54 C14.07 54 7.14 54 0 54 C0 50.37 0 46.74 0 43 C-3.3 43 -6.6 43 -10 43 C-9.99476318 43.93384521 -9.98952637 44.86769043 -9.98413086 45.82983398 C-9.9671238 49.28312796 -9.95456698 52.73637767 -9.94506836 56.18969727 C-9.94002879 57.68644918 -9.93319713 59.18319616 -9.92456055 60.67993164 C-9.91247841 62.82699807 -9.90676809 64.97399962 -9.90234375 67.12109375 C-9.89710693 68.4145874 -9.89187012 69.70808105 -9.88647461 71.04077148 C-10 74 -10 74 -11 75 C-12.56172745 75.08685603 -14.12729344 75.10702219 -15.69140625 75.09765625 C-16.54162354 75.09515869 -17.39184082 75.09266113 -18.26782227 75.09008789 C-19.35506592 75.08098389 -20.44230957 75.07187988 -21.5625 75.0625 C-25.006875 75.041875 -28.45125 75.02125 -32 75 C-32 81.93 -32 88.86 -32 96 C-38.93 96 -45.86 96 -53 96 C-53 89.07 -53 82.14 -53 75 C-56.3 75 -59.6 75 -63 75 C-63 74.67 -63 74.34 -63 74 C-59.7 74 -56.4 74 -53 74 C-53 70.7 -53 67.4 -53 64 C-55.4440625 64.0309375 -55.4440625 64.0309375 -57.9375 64.0625 C-59.62499341 64.08386068 -61.31391034 64.07205511 -63 64 C-64 63 -64 63 -64.09765625 60.93359375 C-64.04882812 57.46679688 -64.04882812 57.46679688 -64 54 C-67.3 54 -70.6 54 -74 54 C-74 53.67 -74 53.34 -74 53 C-70.7 53 -67.4 53 -64 53 C-64 49.7 -64 46.4 -64 43 C-60.37 43 -56.74 43 -53 43 C-53 46.3 -53 49.6 -53 53 C-46.07 53 -39.14 53 -32 53 C-31.505 57.95 -31.505 57.95 -31 63 C-28.03 63 -25.06 63 -22 63 C-21.67 56.4 -21.34 49.8 -21 43 C-24.3 43 -27.6 43 -31 43 C-31.33 42.67 -31.66 42.34 -32 42 C-32 38.7 -32 35.4 -32 32 C-21.44 32 -10.88 32 0 32 C0 21.44 0 10.88 0 0 Z " fill="#060606" transform="translate(204,156)"/>
<path d="M0 0 C3.3 0 6.6 0 10 0 C10.33 3.3 10.66 6.6 11 10 C14.3 10.33 17.6 10.66 21 11 C21 17.93 21 24.86 21 32 C24.3 31.67 27.6 31.34 31 31 C31.33 27.7 31.66 24.4 32 21 C35.3 21 38.6 21 42 21 C42 17.7 42 14.4 42 11 C45.63 11 49.26 11 53 11 C53 28.49 53 45.98 53 64 C46.07 64 39.14 64 32 64 C32 67.3 32 70.6 32 74 C33.464375 73.979375 34.92875 73.95875 36.4375 73.9375 C37.95832518 73.91607993 39.48071962 73.92820036 41 74 C42 75 42 75 42.09765625 77.28515625 C42.06510417 79.85677083 42.03255208 82.42838542 42 85 C38.7 85 35.4 85 32 85 C32.020625 86.629375 32.04125 88.25875 32.0625 89.9375 C32.08386068 91.62499341 32.07205511 93.31391034 32 95 C31 96 31 96 28.71484375 96.09765625 C26.14322917 96.06510417 23.57161458 96.03255208 21 96 C21 99.3 21 102.6 21 106 C22.629375 105.979375 24.25875 105.95875 25.9375 105.9375 C27.62499341 105.91613932 29.31391034 105.92794489 31 106 C32 107 32 107 32.1328125 109.03125 C32.13023438 109.8459375 32.12765625 110.660625 32.125 111.5 C32.12886719 112.72203125 32.12886719 112.72203125 32.1328125 113.96875 C32 116 32 116 31 117 C28.70848583 117.08790975 26.41427476 117.10694038 24.12109375 117.09765625 C23.09110008 117.09553383 23.09110008 117.09553383 22.04029846 117.09336853 C19.83932199 117.08775479 17.63844591 117.07520007 15.4375 117.0625 C13.94856917 117.05748676 12.45963676 117.05292355 10.97070312 117.04882812 C7.31376925 117.03778093 3.65689442 117.02050713 0 117 C0 113.37 0 109.74 0 106 C3.3 106 6.6 106 10 106 C9.99476318 105.06615479 9.98952637 104.13230957 9.98413086 103.17016602 C9.9671238 99.71687204 9.95456698 96.26362233 9.94506836 92.81030273 C9.94002879 91.31355082 9.93319713 89.81680384 9.92456055 88.32006836 C9.91247841 86.17300193 9.90676809 84.02600038 9.90234375 81.87890625 C9.89710693 80.5854126 9.89187012 79.29191895 9.88647461 77.95922852 C10 75 10 75 11 74 C14.33618231 73.85742811 17.65975606 73.95771843 21 74 C21 70.7 21 67.4 21 64 C25.455 63.505 25.455 63.505 30 63 C30 60.03 30 57.06 30 54 C27.96005859 53.90912109 27.96005859 53.90912109 25.87890625 53.81640625 C24.10675903 53.73201829 22.33462423 53.64736942 20.5625 53.5625 C19.66466797 53.52318359 18.76683594 53.48386719 17.84179688 53.44335938 C16.98779297 53.40146484 16.13378906 53.35957031 15.25390625 53.31640625 C14.46314697 53.27974854 13.6723877 53.24309082 12.85766602 53.20532227 C11 53 11 53 10 52 C9.84126045 49.78312006 9.74866163 47.56144702 9.68359375 45.33984375 C9.66281265 44.67537735 9.64203156 44.01091095 9.62062073 43.3263092 C9.55506342 41.19681457 9.49621215 39.06719332 9.4375 36.9375 C9.39432061 35.49673153 9.35070651 34.05597601 9.30664062 32.61523438 C9.19937607 29.0769596 9.09812629 25.53854131 9 22 C6.03 21.67 3.06 21.34 0 21 C0 14.07 0 7.14 0 0 Z " fill="#040404" transform="translate(13,103)"/>
<path d="M0 0 C24.42 0 48.84 0 74 0 C74 24.42 74 48.84 74 74 C49.58 74 25.16 74 0 74 C0 49.58 0 25.16 0 0 Z M10 11 C10 28.49 10 45.98 10 64 C27.49 64 44.98 64 63 64 C63 46.51 63 29.02 63 11 C45.51 11 28.02 11 10 11 Z " fill="#040404" transform="translate(13,252)"/>
<path d="M0 0 C24.42 0 48.84 0 74 0 C74 24.42 74 48.84 74 74 C49.58 74 25.16 74 0 74 C0 49.58 0 25.16 0 0 Z M10 10 C10 27.82 10 45.64 10 64 C27.82 64 45.64 64 64 64 C64 46.18 64 28.36 64 10 C46.18 10 28.36 10 10 10 Z " fill="#000000" transform="translate(247,18)"/>
<path d="M0 0 C24.42 0 48.84 0 74 0 C74 24.42 74 48.84 74 74 C49.58 74 25.16 74 0 74 C0 49.58 0 25.16 0 0 Z M10 10 C10 27.82 10 45.64 10 64 C27.82 64 45.64 64 64 64 C64 46.18 64 28.36 64 10 C46.18 10 28.36 10 10 10 Z " fill="#000000" transform="translate(13,18)"/>
<path d="M0 0 C3.63 0 7.26 0 11 0 C11 3.3 11 6.6 11 10 C14.3 10 17.6 10 21 10 C21 6.7 21 3.4 21 0 C35.19 0 49.38 0 64 0 C64 6.93 64 13.86 64 21 C60.37 21 56.74 21 53 21 C53 17.7 53 14.4 53 11 C46.07 11 39.14 11 32 11 C32 14.3 32 17.6 32 21 C33.629375 20.979375 35.25875 20.95875 36.9375 20.9375 C38.62499341 20.91613932 40.31391034 20.92794489 42 21 C43 22 43 22 43.1328125 24.03125 C43.13023437 24.8459375 43.12765625 25.660625 43.125 26.5 C43.12886719 27.72203125 43.12886719 27.72203125 43.1328125 28.96875 C43 31 43 31 42 32 C38.7 32 35.4 32 32 32 C32 38.93 32 45.86 32 53 C28.37 53 24.74 53 21 53 C21 46.07 21 39.14 21 32 C14.07 32 7.14 32 0 32 C0 35.3 0 38.6 0 42 C-3.63 42 -7.26 42 -11 42 C-11 38.7 -11 35.4 -11 32 C-14.3 32 -17.6 32 -21 32 C-21 28.37 -21 24.74 -21 21 C-14.07 21 -7.14 21 0 21 C0 14.07 0 7.14 0 0 Z " fill="#070707" transform="translate(119,18)"/>
<path d="M0 0 C7.26 0 14.52 0 22 0 C22 3.3 22 6.6 22 10 C23.464375 9.979375 24.92875 9.95875 26.4375 9.9375 C27.95832518 9.91607993 29.48071962 9.92820036 31 10 C32.58937556 11.58937556 32.12981143 13.23899846 32.1328125 15.4375 C32.13410156 16.33210938 32.13539063 17.22671875 32.13671875 18.1484375 C32.13285156 19.08945312 32.12898438 20.03046875 32.125 21 C32.12886719 21.94101562 32.13273437 22.88203125 32.13671875 23.8515625 C32.13542969 24.74617188 32.13414062 25.64078125 32.1328125 26.5625 C32.13168457 27.38878906 32.13055664 28.21507813 32.12939453 29.06640625 C32 31 32 31 31 32 C27.99668982 32.14193337 25.00782866 32.04236378 22 32 C22 35.3 22 38.6 22 42 C18.37 42 14.74 42 11 42 C11 48.93 11 55.86 11 63 C6.05 63.495 6.05 63.495 1 64 C0.67 67.3 0.34 70.6 0 74 C-3.3 74 -6.6 74 -10 74 C-10 70.37 -10 66.74 -10 63 C-6.7 63 -3.4 63 0 63 C-0.01160156 61.56785156 -0.02320313 60.13570312 -0.03515625 58.66015625 C-0.04453255 56.79427213 -0.05363292 54.92838661 -0.0625 53.0625 C-0.07087891 52.11697266 -0.07925781 51.17144531 -0.08789062 50.19726562 C-0.09272461 48.84858398 -0.09272461 48.84858398 -0.09765625 47.47265625 C-0.10551147 46.22367554 -0.10551147 46.22367554 -0.11352539 44.94946289 C0 43 0 43 1 42 C3.98889359 41.54234333 6.98969648 41.29679049 10 41 C10.495 36.05 10.495 36.05 11 31 C14.3 31 17.6 31 21 31 C21 24.07 21 17.14 21 10 C11.1 10.495 11.1 10.495 1 11 C0.67 21.23 0.34 31.46 0 42 C-4.95 42.495 -4.95 42.495 -10 43 C-10.33 49.6 -10.66 56.2 -11 63 C-14.3 63 -17.6 63 -21 63 C-21.33 56.4 -21.66 49.8 -22 43 C-25.3 42.67 -28.6 42.34 -32 42 C-32 35.07 -32 28.14 -32 21 C-21.605 20.505 -21.605 20.505 -11 20 C-10.67 16.7 -10.34 13.4 -10 10 C-6.7 10 -3.4 10 0 10 C0 6.7 0 3.4 0 0 Z " fill="#010101" transform="translate(204,29)"/>
<path d="M0 0 C3.3 0 6.6 0 10 0 C10 6.93 10 13.86 10 21 C6.7 21 3.4 21 0 21 C0 28.26 0 35.52 0 43 C3.3 43 6.6 43 10 43 C10 53.23 10 63.46 10 74 C6.37 74 2.74 74 -1 74 C-1 70.7 -1 67.4 -1 64 C-11.23 64 -21.46 64 -32 64 C-32 67.3 -32 70.6 -32 74 C-39.26 74 -46.52 74 -54 74 C-54 70.7 -54 67.4 -54 64 C-49.05 63.505 -49.05 63.505 -44 63 C-43.67 59.7 -43.34 56.4 -43 53 C-39.37 53 -35.74 53 -32 53 C-32 49.7 -32 46.4 -32 43 C-28.7 43 -25.4 43 -22 43 C-22 46.3 -22 49.6 -22 53 C-18.37 53 -14.74 53 -11 53 C-11 42.44 -11 31.88 -11 21 C-7.7 21 -4.4 21 -1 21 C-1.01160156 19.56785156 -1.02320313 18.13570313 -1.03515625 16.66015625 C-1.04453255 14.79427213 -1.05363292 12.92838661 -1.0625 11.0625 C-1.07087891 10.11697266 -1.07925781 9.17144531 -1.08789062 8.19726562 C-1.09111328 7.29814453 -1.09433594 6.39902344 -1.09765625 5.47265625 C-1.10289307 4.64000244 -1.10812988 3.80734863 -1.11352539 2.94946289 C-1 1 -1 1 0 0 Z " fill="#070707" transform="translate(311,252)"/>
<path d="M0 0 C3.63 0 7.26 0 11 0 C11 6.93 11 13.86 11 21 C6.05 21.495 6.05 21.495 1 22 C1 24.97 1 27.94 1 31 C7.93 31.33 14.86 31.66 22 32 C22 35.3 22 38.6 22 42 C18.37 42 14.74 42 11 42 C11.01160156 43.50433594 11.02320313 45.00867188 11.03515625 46.55859375 C11.04453249 48.51822793 11.05363287 50.47786345 11.0625 52.4375 C11.07087891 53.43072266 11.07925781 54.42394531 11.08789062 55.44726562 C11.09111328 56.39150391 11.09433594 57.33574219 11.09765625 58.30859375 C11.10289307 59.18314209 11.10812988 60.05769043 11.11352539 60.95874023 C11 63 11 63 10 64 C6.66381769 64.14257189 3.34024394 64.04228157 0 64 C0 67.3 0 70.6 0 74 C-3.3 74 -6.6 74 -10 74 C-10 70.7 -10 67.4 -10 64 C-12.4440625 64.0309375 -12.4440625 64.0309375 -14.9375 64.0625 C-16.62499341 64.08386068 -18.31391034 64.07205511 -20 64 C-21 63 -21 63 -21.09765625 60.71484375 C-21.06510417 58.14322917 -21.03255208 55.57161458 -21 53 C-16.05 52.505 -16.05 52.505 -11 52 C-10.67 38.14 -10.34 24.28 -10 10 C-6.7 10 -3.4 10 0 10 C0 6.7 0 3.4 0 0 Z " fill="#040404" transform="translate(225,82)"/>
<path d="M0 0 C3.63 0 7.26 0 11 0 C11 3.3 11 6.6 11 10 C7.7 10 4.4 10 1 10 C1 16.93 1 23.86 1 31 C3.97 31 6.94 31 10 31 C11 32 11 32 11.09765625 34.28515625 C11.06510417 36.85677083 11.03255208 39.42838542 11 42 C7.7 42 4.4 42 1 42 C1.020625 43.629375 1.04125 45.25875 1.0625 46.9375 C1.08386068 48.62499341 1.07205511 50.31391034 1 52 C0 53 0 53 -2.28515625 53.09765625 C-4.85677083 53.06510417 -7.42838542 53.03255208 -10 53 C-10 56.3 -10 59.6 -10 63 C-8.370625 62.979375 -6.74125 62.95875 -5.0625 62.9375 C-3.37500659 62.91613932 -1.68608966 62.92794489 0 63 C1 64 1 64 1.1328125 66.03125 C1.13023438 66.8459375 1.12765625 67.660625 1.125 68.5 C1.12886719 69.72203125 1.12886719 69.72203125 1.1328125 70.96875 C1 73 1 73 0 74 C-2.29151417 74.08790975 -4.58572524 74.10694038 -6.87890625 74.09765625 C-7.90889992 74.09553383 -7.90889992 74.09553383 -8.95970154 74.09336853 C-11.16067801 74.08775479 -13.36155409 74.07520007 -15.5625 74.0625 C-17.05143083 74.05748676 -18.54036324 74.05292355 -20.02929688 74.04882812 C-23.68623075 74.03778093 -27.34310558 74.02050713 -31 74 C-31 70.37 -31 66.74 -31 63 C-27.7 63 -24.4 63 -21 63 C-21.00523682 62.06615479 -21.01047363 61.13230957 -21.01586914 60.17016602 C-21.0328762 56.71687204 -21.04543302 53.26362233 -21.05493164 49.81030273 C-21.05997121 48.31355082 -21.06680287 46.81680384 -21.07543945 45.32006836 C-21.08752159 43.17300193 -21.09323191 41.02600038 -21.09765625 38.87890625 C-21.10289307 37.5854126 -21.10812988 36.29191895 -21.11352539 34.95922852 C-21 32 -21 32 -20 31 C-16.66381769 30.85742811 -13.34024394 30.95771843 -10 31 C-10 27.7 -10 24.4 -10 21 C-7.03 20.67 -4.06 20.34 -1 20 C-1.020625 18.55625 -1.04125 17.1125 -1.0625 15.625 C-1.07002945 10.35438392 -0.59822222 5.2344444 0 0 Z " fill="#080808" transform="translate(44,146)"/>
<path d="M0 0 C3.3 0 6.6 0 10 0 C10 3.3 10 6.6 10 10 C11.629375 9.979375 13.25875 9.95875 14.9375 9.9375 C16.62499341 9.91613932 18.31391034 9.92794489 20 10 C21.58937556 11.58937556 21.12981143 13.23899846 21.1328125 15.4375 C21.13474609 16.77941406 21.13474609 16.77941406 21.13671875 18.1484375 C21.13285156 19.08945312 21.12898438 20.03046875 21.125 21 C21.13080078 22.41152344 21.13080078 22.41152344 21.13671875 23.8515625 C21.13542969 24.74617188 21.13414062 25.64078125 21.1328125 26.5625 C21.13168457 27.38878906 21.13055664 28.21507812 21.12939453 29.06640625 C21 31 21 31 20 32 C16.66381769 32.14257189 13.34024394 32.04228157 10 32 C10 35.3 10 38.6 10 42 C11.629375 41.979375 13.25875 41.95875 14.9375 41.9375 C16.62499341 41.91613932 18.31391034 41.92794489 20 42 C21 43 21 43 21.11352539 44.94946289 C21.10828857 45.7821167 21.10305176 46.61477051 21.09765625 47.47265625 C21.09515869 48.28226807 21.09266113 49.09187988 21.09008789 49.92602539 C21.08098389 50.96106201 21.07187988 51.99609863 21.0625 53.0625 C21.041875 56.341875 21.02125 59.62125 21 63 C10.44 63 -0.12 63 -11 63 C-11 59.7 -11 56.4 -11 53 C-4.07 53 2.86 53 10 53 C9.505 48.05 9.505 48.05 9 43 C2.4 42.67 -4.2 42.34 -11 42 C-11 32 -11 32 -10 31 C-6.7 31 -3.4 31 0 31 C0 20.77 0 10.54 0 0 Z " fill="#060606" transform="translate(109,263)"/>
<path d="M0 0 C1.22203125 0.00386719 1.22203125 0.00386719 2.46875 0.0078125 C3.2834375 0.00523437 4.098125 0.00265625 4.9375 0 C6.96875 0.1328125 6.96875 0.1328125 7.96875 1.1328125 C8.05746273 4.16259054 8.0839435 7.16948272 8.06640625 10.19921875 C8.0649913 11.10784164 8.06357635 12.01646454 8.06211853 12.95262146 C8.05650193 15.86688471 8.04394665 18.78107231 8.03125 21.6953125 C8.02623714 23.66601452 8.02167386 25.63671774 8.01757812 27.60742188 C8.00652711 32.44924809 7.98925138 37.29101745 7.96875 42.1328125 C4.33875 42.1328125 0.70875 42.1328125 -3.03125 42.1328125 C-3.03125 38.8328125 -3.03125 35.5328125 -3.03125 32.1328125 C-6.33125 32.1328125 -9.63125 32.1328125 -13.03125 32.1328125 C-13.03125 35.4328125 -13.03125 38.7328125 -13.03125 42.1328125 C-13.36125 42.1328125 -13.69125 42.1328125 -14.03125 42.1328125 C-14.03125 38.8328125 -14.03125 35.5328125 -14.03125 32.1328125 C-20.96125 32.1328125 -27.89125 32.1328125 -35.03125 32.1328125 C-35.03125 35.4328125 -35.03125 38.7328125 -35.03125 42.1328125 C-39.48625 42.6278125 -39.48625 42.6278125 -44.03125 43.1328125 C-44.36125 49.7328125 -44.69125 56.3328125 -45.03125 63.1328125 C-52.29125 63.1328125 -59.55125 63.1328125 -67.03125 63.1328125 C-67.03125 59.8328125 -67.03125 56.5328125 -67.03125 53.1328125 C-62.08125 52.6378125 -62.08125 52.6378125 -57.03125 52.1328125 C-56.8146875 49.93625 -56.8146875 49.93625 -56.59375 47.6953125 C-56.15625 43.2578125 -56.15625 43.2578125 -55.03125 42.1328125 C-52.02793982 41.99087913 -49.03907866 42.09044872 -46.03125 42.1328125 C-46.03125 38.8328125 -46.03125 35.5328125 -46.03125 32.1328125 C-49.33125 32.1328125 -52.63125 32.1328125 -56.03125 32.1328125 C-56.03125 31.8028125 -56.03125 31.4728125 -56.03125 31.1328125 C-52.40125 31.1328125 -48.77125 31.1328125 -45.03125 31.1328125 C-45.03125 27.8328125 -45.03125 24.5328125 -45.03125 21.1328125 C-41.40125 21.1328125 -37.77125 21.1328125 -34.03125 21.1328125 C-34.03125 24.4328125 -34.03125 27.7328125 -34.03125 31.1328125 C-27.43125 31.1328125 -20.83125 31.1328125 -14.03125 31.1328125 C-14.03125 28.1628125 -14.03125 25.1928125 -14.03125 22.1328125 C-13.03125 21.1328125 -13.03125 21.1328125 -10.74609375 21.03515625 C-9.82957031 21.04675781 -8.91304688 21.05835938 -7.96875 21.0703125 C-7.04964844 21.07933594 -6.13054687 21.08835937 -5.18359375 21.09765625 C-4.47332031 21.10925781 -3.76304687 21.12085938 -3.03125 21.1328125 C-3.03648682 20.53218994 -3.04172363 19.93156738 -3.04711914 19.31274414 C-3.06783014 16.60694412 -3.08089125 13.90116073 -3.09375 11.1953125 C-3.10212891 10.24978516 -3.11050781 9.30425781 -3.11914062 8.33007812 C-3.12236328 7.43095703 -3.12558594 6.53183594 -3.12890625 5.60546875 C-3.13414307 4.77281494 -3.13937988 3.94016113 -3.14477539 3.08227539 C-2.9874586 0.38082477 -2.69723352 0.17635758 0 0 Z " fill="#F8F8F8" transform="translate(292.03125,262.8671875)"/>
<path d="M0 0 C3.63 0 7.26 0 11 0 C11 3.3 11 6.6 11 10 C12.43214844 9.98839844 13.86429688 9.97679687 15.33984375 9.96484375 C17.20572787 9.95546745 19.07161339 9.94636708 20.9375 9.9375 C22.35579102 9.92493164 22.35579102 9.92493164 23.80273438 9.91210938 C25.15141602 9.90727539 25.15141602 9.90727539 26.52734375 9.90234375 C27.35999756 9.89710693 28.19265137 9.89187012 29.05053711 9.88647461 C31 10 31 10 32 11 C32.08669432 12.4887186 32.10703494 13.981445 32.09765625 15.47265625 C32.09443359 16.37177734 32.09121094 17.27089844 32.08789062 18.19726562 C32.07532227 19.61555664 32.07532227 19.61555664 32.0625 21.0625 C32.05798828 22.01189453 32.05347656 22.96128906 32.04882812 23.93945312 C32.03700128 26.29299531 32.01906521 28.64650532 32 31 C35.3 31 38.6 31 42 31 C42 31.33 42 31.66 42 32 C38.7 32 35.4 32 32 32 C32 35.3 32 38.6 32 42 C28.37 42 24.74 42 21 42 C21 38.7 21 35.4 21 32 C17.7 32 14.4 32 11 32 C11 35.3 11 38.6 11 42 C4.07 42 -2.86 42 -10 42 C-10 38.7 -10 35.4 -10 32 C-7.03 31.67 -4.06 31.34 -1 31 C-0.67 20.77 -0.34 10.54 0 0 Z " fill="#050505" transform="translate(55,199)"/>
<path d="M0 0 C10.56 0 21.12 0 32 0 C32 10.56 32 21.12 32 32 C21.44 32 10.88 32 0 32 C0 21.44 0 10.88 0 0 Z " fill="#030303" transform="translate(34,273)"/>
<path d="M0 0 C10.56 0 21.12 0 32 0 C32 10.56 32 21.12 32 32 C21.44 32 10.88 32 0 32 C0 21.44 0 10.88 0 0 Z " fill="#020202" transform="translate(268,39)"/>
<path d="M0 0 C10.56 0 21.12 0 32 0 C32 10.56 32 21.12 32 32 C21.44 32 10.88 32 0 32 C0 21.44 0 10.88 0 0 Z " fill="#020202" transform="translate(34,39)"/>
<path d="M0 0 C5.094375 -0.020625 10.18875 -0.04125 15.4375 -0.0625 C17.04681396 -0.071604 18.65612793 -0.08070801 20.31420898 -0.09008789 C21.57048096 -0.09258545 22.82675293 -0.09508301 24.12109375 -0.09765625 C26.06133423 -0.10551147 26.06133423 -0.10551147 28.04077148 -0.11352539 C31 0 31 0 32 1 C32.08790975 3.29151417 32.10694038 5.58572524 32.09765625 7.87890625 C32.09515869 9.13517822 32.09266113 10.3914502 32.09008789 11.68579102 C32.08098389 13.29510498 32.07187988 14.90441895 32.0625 16.5625 C32.041875 21.656875 32.02125 26.75125 32 32 C21.44 32 10.88 32 0 32 C0 21.44 0 10.88 0 0 Z " fill="#F8F8F8" transform="translate(236,241)"/>
<path d="M0 0 C2.97 0 5.94 0 9 0 C9 13.86 9 27.72 9 42 C4.545 42.495 4.545 42.495 0 43 C-0.33 46.3 -0.66 49.6 -1 53 C2.3 53 5.6 53 9 53 C9 56.63 9 60.26 9 64 C5.7 64 2.4 64 -1 64 C-0.979375 65.629375 -0.95875 67.25875 -0.9375 68.9375 C-0.91613932 70.62499341 -0.92794489 72.31391034 -1 74 C-2 75 -2 75 -4.03125 75.1328125 C-4.8459375 75.13023437 -5.660625 75.12765625 -6.5 75.125 C-7.3146875 75.12757813 -8.129375 75.13015625 -8.96875 75.1328125 C-11 75 -11 75 -12 74 C-12.101137 70.98191937 -12.13968909 67.98719487 -12.1328125 64.96875 C-12.13376923 64.06249878 -12.13472595 63.15624756 -12.13571167 62.22253418 C-12.13639353 60.30248953 -12.13453882 58.38244259 -12.13037109 56.46240234 C-12.12502292 53.51264296 -12.13031588 50.56303586 -12.13671875 47.61328125 C-12.13605797 45.75260383 -12.13477681 43.8919265 -12.1328125 42.03125 C-12.13483673 41.14272339 -12.13686096 40.25419678 -12.13894653 39.33874512 C-12.11494988 33.11494988 -12.11494988 33.11494988 -11 32 C-9.31391034 31.92794489 -7.62499341 31.91613932 -5.9375 31.9375 C-5.01839844 31.94652344 -4.09929687 31.95554687 -3.15234375 31.96484375 C-2.44207031 31.97644531 -1.73179688 31.98804687 -1 32 C-1.00523682 31.06615479 -1.01047363 30.13230957 -1.01586914 29.17016602 C-1.0328762 25.71687204 -1.04543302 22.26362233 -1.05493164 18.81030273 C-1.05997121 17.31355082 -1.06680287 15.81680384 -1.07543945 14.32006836 C-1.08752159 12.17300193 -1.09323191 10.02600038 -1.09765625 7.87890625 C-1.10289307 6.5854126 -1.10812988 5.29191895 -1.11352539 3.95922852 C-1 1 -1 1 0 0 Z " fill="#070707" transform="translate(120,71)"/>
<path d="M0 0 C7.26 0 14.52 0 22 0 C22 3.3 22 6.6 22 10 C23.464375 9.979375 24.92875 9.95875 26.4375 9.9375 C27.95832518 9.91607993 29.48071962 9.92820036 31 10 C32.58937556 11.58937556 32.12981143 13.23899846 32.1328125 15.4375 C32.13474609 16.77941406 32.13474609 16.77941406 32.13671875 18.1484375 C32.13285156 19.08945312 32.12898438 20.03046875 32.125 21 C32.13080078 22.41152344 32.13080078 22.41152344 32.13671875 23.8515625 C32.13542969 24.74617188 32.13414062 25.64078125 32.1328125 26.5625 C32.13168457 27.38878906 32.13055664 28.21507813 32.12939453 29.06640625 C32 31 32 31 31 32 C27.99668982 32.14193337 25.00782866 32.04236378 22 32 C22 35.3 22 38.6 22 42 C18.37 42 14.74 42 11 42 C11 48.93 11 55.86 11 63 C6.05 63.495 6.05 63.495 1 64 C0.67 67.3 0.34 70.6 0 74 C-3.3 74 -6.6 74 -10 74 C-10 70.37 -10 66.74 -10 63 C-6.7 63 -3.4 63 0 63 C-0.01740234 60.85177734 -0.01740234 60.85177734 -0.03515625 58.66015625 C-0.04453255 56.79427213 -0.05363292 54.92838661 -0.0625 53.0625 C-0.07087891 52.11697266 -0.07925781 51.17144531 -0.08789062 50.19726562 C-0.09111328 49.29814453 -0.09433594 48.39902344 -0.09765625 47.47265625 C-0.10289307 46.64000244 -0.10812988 45.80734863 -0.11352539 44.94946289 C0 43 0 43 1 42 C3.98889359 41.54234333 6.98969648 41.29679049 10 41 C10.33 37.7 10.66 34.4 11 31 C14.3 31 17.6 31 21 31 C21 24.07 21 17.14 21 10 C5.655 10.495 5.655 10.495 -10 11 C-10 10.67 -10 10.34 -10 10 C-6.7 10 -3.4 10 0 10 C0 6.7 0 3.4 0 0 Z " fill="#050505" transform="translate(204,29)"/>
<path d="M0 0 C3.3 0 6.6 0 10 0 C10 6.93 10 13.86 10 21 C16.93 21 23.86 21 31 21 C31 28.26 31 35.52 31 43 C26.60336967 43.02291238 22.20694512 43.04283833 17.81030273 43.05493164 C16.31355082 43.05997121 14.81680384 43.06680287 13.32006836 43.07543945 C11.17300193 43.08752159 9.02600038 43.09323191 6.87890625 43.09765625 C4.93866577 43.10551147 4.93866577 43.10551147 2.95922852 43.11352539 C0 43 0 43 -1 42 C-1.101137 38.98191937 -1.13968909 35.98719487 -1.1328125 32.96875 C-1.13376923 32.06249878 -1.13472595 31.15624756 -1.13571167 30.22253418 C-1.13639353 28.30248953 -1.13453882 26.38244259 -1.13037109 24.46240234 C-1.12502292 21.51264296 -1.13031588 18.56303586 -1.13671875 15.61328125 C-1.13605797 13.75260383 -1.13477681 11.8919265 -1.1328125 10.03125 C-1.13483673 9.14272339 -1.13686096 8.25419678 -1.13894653 7.33874512 C-1.11494988 1.11494988 -1.11494988 1.11494988 0 0 Z " fill="#EEEEEE" transform="translate(194,252)"/>
<path d="M0 0 C3.3 0 6.6 0 10 0 C10 10.56 10 21.12 10 32 C6.37 32 2.74 32 -1 32 C-1 28.7 -1 25.4 -1 22 C-4.3 22 -7.6 22 -11 22 C-11 25.3 -11 28.6 -11 32 C-15.95 32.495 -15.95 32.495 -21 33 C-21.33 36.3 -21.66 39.6 -22 43 C-25.3 43 -28.6 43 -32 43 C-32 32.44 -32 21.88 -32 11 C-28.7 11 -25.4 11 -22 11 C-22 14.3 -22 17.6 -22 21 C-18.37 21 -14.74 21 -11 21 C-11 17.7 -11 14.4 -11 11 C-7.7 11 -4.4 11 -1 11 C-1.020625 9.370625 -1.04125 7.74125 -1.0625 6.0625 C-1.08386068 4.37500659 -1.07205511 2.68608966 -1 1 C-0.67 0.67 -0.34 0.34 0 0 Z " fill="#0C0C0C" transform="translate(311,124)"/>
<path d="M0 0 C3.3 0 6.6 0 10 0 C10 10.23 10 20.46 10 31 C6.37 31 2.74 31 -1 31 C-1 38.26 -1 45.52 -1 53 C2.63 53 6.26 53 10 53 C10 56.3 10 59.6 10 63 C3.07 63 -3.86 63 -11 63 C-11 49.14 -11 35.28 -11 21 C-7.7 20.67 -4.4 20.34 -1 20 C-0.67 13.4 -0.34 6.8 0 0 Z " fill="#000000" transform="translate(311,178)"/>
<path d="M0 0 C3.3 0 6.6 0 10 0 C10.33 3.3 10.66 6.6 11 10 C14.3 10.33 17.6 10.66 21 11 C21.02683436 14.31255326 21.0467578 17.62489183 21.0625 20.9375 C21.07087891 21.88302734 21.07925781 22.82855469 21.08789062 23.80273438 C21.09272461 25.15141602 21.09272461 25.15141602 21.09765625 26.52734375 C21.10551147 27.77632446 21.10551147 27.77632446 21.11352539 29.05053711 C21 31 21 31 20 32 C18.5112814 32.08669432 17.018555 32.10703494 15.52734375 32.09765625 C14.71773193 32.09515869 13.90812012 32.09266113 13.07397461 32.09008789 C12.03893799 32.08098389 11.00390137 32.07187988 9.9375 32.0625 C6.658125 32.041875 3.37875 32.02125 0 32 C0 21.44 0 10.88 0 0 Z " fill="#020202" transform="translate(247,156)"/>
<path d="M0 0 C0.83265381 0.00523682 1.66530762 0.01047363 2.52319336 0.01586914 C3.42231445 0.0190918 4.32143555 0.02231445 5.24780273 0.02563477 C6.66609375 0.03820312 6.66609375 0.03820312 8.11303711 0.05102539 C9.06243164 0.05553711 10.01182617 0.06004883 10.98999023 0.06469727 C13.34356776 0.07652429 15.69702188 0.09300514 18.05053711 0.11352539 C18.07941525 3.5926748 18.09729398 7.0717937 18.11303711 10.55102539 C18.12141602 11.54424805 18.12979492 12.5374707 18.13842773 13.56079102 C18.14326172 14.97714844 18.14326172 14.97714844 18.14819336 16.42211914 C18.15604858 17.73394165 18.15604858 17.73394165 18.1640625 19.07226562 C18.05053711 21.11352539 18.05053711 21.11352539 17.05053711 22.11352539 C14.08053711 22.11352539 11.11053711 22.11352539 8.05053711 22.11352539 C8.05053711 28.71352539 8.05053711 35.31352539 8.05053711 42.11352539 C7.72053711 42.11352539 7.39053711 42.11352539 7.05053711 42.11352539 C7.05053711 35.51352539 7.05053711 28.91352539 7.05053711 22.11352539 C4.08053711 22.11352539 1.11053711 22.11352539 -1.94946289 22.11352539 C-3.53883845 20.52414983 -3.07927432 18.87452693 -3.08227539 16.67602539 C-3.08356445 15.78141602 -3.08485352 14.88680664 -3.08618164 13.96508789 C-3.08038086 12.55356445 -3.08038086 12.55356445 -3.07446289 11.11352539 C-3.07833008 10.17250977 -3.08219727 9.23149414 -3.08618164 8.26196289 C-3.08489258 7.36735352 -3.08360352 6.47274414 -3.08227539 5.55102539 C-3.0805835 4.3115918 -3.0805835 4.3115918 -3.07885742 3.04711914 C-2.90250169 0.41176559 -2.63789571 0.15361572 0 0 Z " fill="#040404" transform="translate(153.949462890625,70.886474609375)"/>
<path d="M0 0 C3.279375 -0.020625 6.55875 -0.04125 9.9375 -0.0625 C10.97253662 -0.071604 12.00757324 -0.08070801 13.07397461 -0.09008789 C14.28839233 -0.09383423 14.28839233 -0.09383423 15.52734375 -0.09765625 C16.77632446 -0.10551147 16.77632446 -0.10551147 18.05053711 -0.11352539 C20 0 20 0 21 1 C21.09880797 2.47652664 21.13079245 3.95767236 21.1328125 5.4375 C21.13474609 6.77941406 21.13474609 6.77941406 21.13671875 8.1484375 C21.13285156 9.08945313 21.12898438 10.03046875 21.125 11 C21.13080078 12.41152344 21.13080078 12.41152344 21.13671875 13.8515625 C21.13542969 14.74617187 21.13414062 15.64078125 21.1328125 16.5625 C21.13168457 17.38878906 21.13055664 18.21507812 21.12939453 19.06640625 C21 21 21 21 20 22 C18.5112814 22.08669432 17.018555 22.10703494 15.52734375 22.09765625 C14.71773193 22.09515869 13.90812012 22.09266113 13.07397461 22.09008789 C12.03893799 22.08098389 11.00390137 22.07187988 9.9375 22.0625 C6.658125 22.041875 3.37875 22.02125 0 22 C0 14.74 0 7.48 0 0 Z " fill="#080808" transform="translate(247,124)"/>
<path d="M0 0 C3.3 0 6.6 0 10 0 C10 3.3 10 6.6 10 10 C6.7 10 3.4 10 0 10 C0 16.93 0 23.86 0 31 C-4.95 31.495 -4.95 31.495 -10 32 C-10.33 35.3 -10.66 38.6 -11 42 C-14.3 42 -17.6 42 -21 42 C-21 38.37 -21 34.74 -21 31 C-17.7 31 -14.4 31 -11 31 C-11.01740234 28.85177734 -11.01740234 28.85177734 -11.03515625 26.66015625 C-11.04453255 24.79427213 -11.05363292 22.92838661 -11.0625 21.0625 C-11.07087891 20.11697266 -11.07925781 19.17144531 -11.08789062 18.19726562 C-11.09111328 17.29814453 -11.09433594 16.39902344 -11.09765625 15.47265625 C-11.10289307 14.64000244 -11.10812988 13.80734863 -11.11352539 12.94946289 C-11 11 -11 11 -10 10 C-7.01110641 9.54234333 -4.01030352 9.29679049 -1 9 C-0.67 6.03 -0.34 3.06 0 0 Z " fill="#0E0E0E" transform="translate(215,61)"/>
<path d="M0 0 C3.3 0 6.6 0 10 0 C10.33 3.3 10.66 6.6 11 10 C14.3 10.33 17.6 10.66 21 11 C21 14.3 21 17.6 21 21 C16.05 21.495 16.05 21.495 11 22 C10.67 25.3 10.34 28.6 10 32 C6.7 32 3.4 32 0 32 C0 21.44 0 10.88 0 0 Z " fill="#020202" transform="translate(279,135)"/>
<path d="M0 0 C0.33 0 0.66 0 1 0 C1 13.53 1 27.06 1 41 C4.3 41 7.6 41 11 41 C11 31.1 11 21.2 11 11 C11.33 11 11.66 11 12 11 C12 20.9 12 30.8 12 41 C18.6 41 25.2 41 32 41 C32 41.33 32 41.66 32 42 C25.4 42 18.8 42 12 42 C12 45.3 12 48.6 12 52 C11.67 52.33 11.34 52.66 11 53 C7.7 53 4.4 53 1 53 C1 59.6 1 66.2 1 73 C0.67 73 0.34 73 0 73 C0 66.07 0 59.14 0 52 C-3.3 52 -6.6 52 -10 52 C-10.09765625 44.28515625 -10.09765625 44.28515625 -10 42 C-9.505 41.505 -9.505 41.505 -9 41 C-6.03 41 -3.06 41 0 41 C0 27.47 0 13.94 0 0 Z " fill="#727272" transform="translate(129,72)"/>
<path d="M0 0 C0.8146875 0.00257813 1.629375 0.00515625 2.46875 0.0078125 C3.2834375 0.00523437 4.098125 0.00265625 4.9375 0 C6.96875 0.1328125 6.96875 0.1328125 7.96875 1.1328125 C8.05544432 2.6215311 8.07578494 4.1142575 8.06640625 5.60546875 C8.06390869 6.41508057 8.06141113 7.22469238 8.05883789 8.05883789 C8.04973389 9.09387451 8.04062988 10.12891113 8.03125 11.1953125 C8.010625 14.4746875 7.99 17.7540625 7.96875 21.1328125 C0.70875 21.1328125 -6.55125 21.1328125 -14.03125 21.1328125 C-14.03125 17.8328125 -14.03125 14.5328125 -14.03125 11.1328125 C-10.73125 10.8028125 -7.43125 10.4728125 -4.03125 10.1328125 C-3.886875 8.6684375 -3.7425 7.2040625 -3.59375 5.6953125 C-3.05191409 0.19954823 -3.05191409 0.19954823 0 0 Z " fill="#090909" transform="translate(239.03125,304.8671875)"/>
<path d="M0 0 C6.93 0 13.86 0 21 0 C21 3.63 21 7.26 21 11 C17.37 11 13.74 11 10 11 C10 14.3 10 17.6 10 21 C6.7 21 3.4 21 0 21 C0 14.07 0 7.14 0 0 Z " fill="#050505" transform="translate(279,188)"/>
<path d="M0 0 C0.33 0 0.66 0 1 0 C1 10.23 1 20.46 1 31 C7.5370285 30.96041741 7.5370285 30.96041741 14.07397461 30.90991211 C15.28839233 30.90616577 15.28839233 30.90616577 16.52734375 30.90234375 C17.77632446 30.89448853 17.77632446 30.89448853 19.05053711 30.88647461 C21 31 21 31 22 32 C22.09880797 33.47652664 22.13079245 34.95767236 22.1328125 36.4375 C22.13474609 37.77941406 22.13474609 37.77941406 22.13671875 39.1484375 C22.13285156 40.08945313 22.12898438 41.03046875 22.125 42 C22.13080078 43.41152344 22.13080078 43.41152344 22.13671875 44.8515625 C22.13542969 45.74617188 22.13414062 46.64078125 22.1328125 47.5625 C22.13168457 48.38878906 22.13055664 49.21507812 22.12939453 50.06640625 C22 52 22 52 21 53 C17.7 53 14.4 53 11 53 C11 46.07 11 39.14 11 32 C4.07 32 -2.86 32 -10 32 C-10 31.67 -10 31.34 -10 31 C-6.7 31 -3.4 31 0 31 C0 20.77 0 10.54 0 0 Z " fill="#1D1D1D" transform="translate(140,146)"/>
<path d="M0 0 C3.63 0 7.26 0 11 0 C11.33 3.3 11.66 6.6 12 10 C18.6 10.33 25.2 10.66 32 11 C32 14.3 32 17.6 32 21 C31 22 31 22 28.95874023 22.11352539 C28.08419189 22.10828857 27.20964355 22.10305176 26.30859375 22.09765625 C25.45837646 22.09515869 24.60815918 22.09266113 23.73217773 22.09008789 C22.64493408 22.08098389 21.55769043 22.07187988 20.4375 22.0625 C16.993125 22.041875 13.54875 22.02125 10 22 C10 15.07 10 8.14 10 1 C6.7 1 3.4 1 0 1 C0 0.67 0 0.34 0 0 Z " fill="#E4E4E4" transform="translate(98,209)"/>
<path d="M0 0 C0.89460938 -0.00128906 1.78921875 -0.00257812 2.7109375 -0.00390625 C3.65195313 -0.00003906 4.59296875 0.00382812 5.5625 0.0078125 C6.97402344 0.00201172 6.97402344 0.00201172 8.4140625 -0.00390625 C9.75597656 -0.00197266 9.75597656 -0.00197266 11.125 0 C11.95128906 0.00112793 12.77757813 0.00225586 13.62890625 0.00341797 C15.5625 0.1328125 15.5625 0.1328125 16.5625 1.1328125 C16.5625 4.4328125 16.5625 7.7328125 16.5625 11.1328125 C9.3025 11.1328125 2.0425 11.1328125 -5.4375 11.1328125 C-5.4375 0.00742248 -5.4375 0.00742248 0 0 Z " fill="#111111" transform="translate(81.4375,123.8671875)"/>
<path d="M0 0 C3.63 0 7.26 0 11 0 C11 6.93 11 13.86 11 21 C7.37 21 3.74 21 0 21 C0 14.07 0 7.14 0 0 Z " fill="#F4F4F4" transform="translate(140,178)"/>
<path d="M0 0 C3.63 0 7.26 0 11 0 C11 3.63 11 7.26 11 11 C14.3 11 17.6 11 21 11 C21 14.3 21 17.6 21 21 C17.37 21 13.74 21 10 21 C10 17.7 10 14.4 10 11 C7.8034375 11.0309375 7.8034375 11.0309375 5.5625 11.0625 C4.04167482 11.08392007 2.51928038 11.07179964 1 11 C0 10 0 10 -0.09765625 7.71484375 C-0.06510417 5.14322917 -0.03255208 2.57161458 0 0 Z " fill="#E0E0E0" transform="translate(119,188)"/>
<path d="M0 0 C3.31255326 -0.02683436 6.62489183 -0.0467578 9.9375 -0.0625 C10.88302734 -0.07087891 11.82855469 -0.07925781 12.80273438 -0.08789062 C14.15141602 -0.09272461 14.15141602 -0.09272461 15.52734375 -0.09765625 C16.77632446 -0.10551147 16.77632446 -0.10551147 18.05053711 -0.11352539 C20 0 20 0 21 1 C21.0979057 2.49738124 21.12974864 3.99942892 21.125 5.5 C21.12886719 6.72203125 21.12886719 6.72203125 21.1328125 7.96875 C21 10 21 10 20 11 C18.5112814 11.08669432 17.018555 11.10703494 15.52734375 11.09765625 C14.62822266 11.09443359 13.72910156 11.09121094 12.80273438 11.08789062 C11.85720703 11.07951172 10.91167969 11.07113281 9.9375 11.0625 C8.98810547 11.05798828 8.03871094 11.05347656 7.06054688 11.04882812 C4.70700469 11.03700128 2.35349468 11.01906521 0 11 C0 7.37 0 3.74 0 0 Z " fill="#0B0B0B" transform="translate(77,103)"/>
<path d="M0 0 C3.3 0 6.6 0 10 0 C10 6.93 10 13.86 10 21 C6.7 21 3.4 21 0 21 C0 14.07 0 7.14 0 0 Z " fill="#010101" transform="translate(311,252)"/>
<path d="M0 0 C3.3 0 6.6 0 10 0 C10 6.93 10 13.86 10 21 C6.7 21 3.4 21 0 21 C0 14.07 0 7.14 0 0 Z " fill="#010101" transform="translate(194,252)"/>
<path d="M0 0 C6.93 0 13.86 0 21 0 C21 3.3 21 6.6 21 10 C14.07 10 7.14 10 0 10 C0 6.7 0 3.4 0 0 Z " fill="#010101" transform="translate(13,231)"/>
<path d="M0 0 C6.93 0 13.86 0 21 0 C21 3.3 21 6.6 21 10 C14.07 10 7.14 10 0 10 C0 6.7 0 3.4 0 0 Z " fill="#010101" transform="translate(66,167)"/>
<path d="M0 0 C3.3 0 6.6 0 10 0 C10 6.93 10 13.86 10 21 C6.7 21 3.4 21 0 21 C0 14.07 0 7.14 0 0 Z " fill="#020202" transform="translate(98,71)"/>
<path d="M0 0 C2.97 0 5.94 0 9 0 C10 1 10 1 10.11352539 2.94946289 C10.10828857 3.7821167 10.10305176 4.61477051 10.09765625 5.47265625 C10.09443359 6.37177734 10.09121094 7.27089844 10.08789062 8.19726562 C10.07951172 9.14279297 10.07113281 10.08832031 10.0625 11.0625 C10.05798828 12.01189453 10.05347656 12.96128906 10.04882812 13.93945312 C10.03700128 16.29299531 10.01906521 18.64650532 10 21 C6.7 21 3.4 21 0 21 C0 14.07 0 7.14 0 0 Z " fill="#020202" transform="translate(226,39)"/>
<path d="M0 0 C3.3 0 6.6 0 10 0 C10 6.6 10 13.2 10 20 C6.7 20 3.4 20 0 20 C0 13.4 0 6.8 0 0 Z " fill="#FEFEFE" transform="translate(109,242)"/>
<path d="M0 0 C6.6 0 13.2 0 20 0 C20 3.3 20 6.6 20 10 C13.4 10 6.8 10 0 10 C0 6.7 0 3.4 0 0 Z " fill="#000000" transform="translate(77,146)"/>
<path d="M0 0 C1.37478516 0.01740234 1.37478516 0.01740234 2.77734375 0.03515625 C3.69644531 0.04417969 4.61554688 0.05320312 5.5625 0.0625 C6.27277344 0.07410156 6.98304688 0.08570313 7.71484375 0.09765625 C7.74172526 1.74340191 7.76118498 3.38927038 7.77734375 5.03515625 C7.78894531 5.95167969 7.80054688 6.86820312 7.8125 7.8125 C7.71484375 10.09765625 7.71484375 10.09765625 6.71484375 11.09765625 C5.02875409 11.16971136 3.33983716 11.18151693 1.65234375 11.16015625 C0.73324219 11.15113281 -0.18585938 11.14210938 -1.1328125 11.1328125 C-1.84308594 11.12121094 -2.55335938 11.10960937 -3.28515625 11.09765625 C-3.31203776 9.45191059 -3.33149748 7.80604212 -3.34765625 6.16015625 C-3.35925781 5.24363281 -3.37085938 4.32710938 -3.3828125 3.3828125 C-3.25079574 0.2936203 -3.0891922 0.13201676 0 0 Z " fill="#111111" transform="translate(207.28515625,272.90234375)"/>
<path d="M0 0 C1.64574566 -0.02688151 3.29161413 -0.04634123 4.9375 -0.0625 C5.85402344 -0.07410156 6.77054688 -0.08570313 7.71484375 -0.09765625 C10 0 10 0 11 1 C11.07205511 2.68608966 11.08386068 4.37500659 11.0625 6.0625 C11.05347656 6.98160156 11.04445312 7.90070313 11.03515625 8.84765625 C11.02355469 9.55792969 11.01195312 10.26820313 11 11 C9.35425434 11.02688151 7.70838587 11.04634123 6.0625 11.0625 C5.14597656 11.07410156 4.22945312 11.08570313 3.28515625 11.09765625 C1 11 1 11 0 10 C-0.07205511 8.31391034 -0.08386068 6.62499341 -0.0625 4.9375 C-0.05347656 4.01839844 -0.04445312 3.09929687 -0.03515625 2.15234375 C-0.02355469 1.44207031 -0.01195312 0.73179687 0 0 Z " fill="#131313" transform="translate(172,252)"/>
<path d="M0 0 C1.64574566 -0.02688151 3.29161413 -0.04634123 4.9375 -0.0625 C5.85402344 -0.07410156 6.77054688 -0.08570313 7.71484375 -0.09765625 C10 0 10 0 11 1 C11.0979057 2.49738124 11.12974864 3.99942892 11.125 5.5 C11.12757813 6.3146875 11.13015625 7.129375 11.1328125 7.96875 C11 10 11 10 10 11 C8.50261876 11.0979057 7.00057108 11.12974864 5.5 11.125 C4.6853125 11.12757813 3.870625 11.13015625 3.03125 11.1328125 C1 11 1 11 0 10 C-0.07205511 8.31391034 -0.08386068 6.62499341 -0.0625 4.9375 C-0.05347656 4.01839844 -0.04445312 3.09929687 -0.03515625 2.15234375 C-0.02355469 1.44207031 -0.01195312 0.73179687 0 0 Z " fill="#EDEDED" transform="translate(151,220)"/>
<path d="M0 0 C1.37478516 0.01740234 1.37478516 0.01740234 2.77734375 0.03515625 C3.69644531 0.04417969 4.61554688 0.05320313 5.5625 0.0625 C6.27277344 0.07410156 6.98304688 0.08570313 7.71484375 0.09765625 C7.74172526 1.74340191 7.76118498 3.38927038 7.77734375 5.03515625 C7.78894531 5.95167969 7.80054688 6.86820313 7.8125 7.8125 C7.71484375 10.09765625 7.71484375 10.09765625 6.71484375 11.09765625 C5.21746251 11.19556195 3.71541483 11.22740489 2.21484375 11.22265625 C1.40015625 11.22523438 0.58546875 11.2278125 -0.25390625 11.23046875 C-2.28515625 11.09765625 -2.28515625 11.09765625 -3.28515625 10.09765625 C-3.38306195 8.60027501 -3.41490489 7.09822733 -3.41015625 5.59765625 C-3.41273438 4.78296875 -3.4153125 3.96828125 -3.41796875 3.12890625 C-3.22757857 0.21705639 -2.92223949 0.12488203 0 0 Z " fill="#EAEAEA" transform="translate(154.28515625,134.90234375)"/>
<path d="M0 0 C1.64574566 -0.02688151 3.29161413 -0.04634123 4.9375 -0.0625 C5.85402344 -0.07410156 6.77054687 -0.08570312 7.71484375 -0.09765625 C10 0 10 0 11 1 C11.0979057 2.49738124 11.12974864 3.99942892 11.125 5.5 C11.12757813 6.3146875 11.13015625 7.129375 11.1328125 7.96875 C11 10 11 10 10 11 C8.50261876 11.0979057 7.00057108 11.12974864 5.5 11.125 C4.6853125 11.12757812 3.870625 11.13015625 3.03125 11.1328125 C1 11 1 11 0 10 C-0.07205511 8.31391034 -0.08386068 6.62499341 -0.0625 4.9375 C-0.05347656 4.01839844 -0.04445313 3.09929687 -0.03515625 2.15234375 C-0.02355469 1.44207031 -0.01195312 0.73179688 0 0 Z " fill="#111111" transform="translate(257,103)"/>
<path d="M0 0 C3.63 0 7.26 0 11 0 C11 0.33 11 0.66 11 1 C7.7 1 4.4 1 1 1 C1 7.6 1 14.2 1 21 C7.6 21 14.2 21 21 21 C21 14.07 21 7.14 21 0 C21.33 0 21.66 0 22 0 C22 7.26 22 14.52 22 22 C15.07 22 8.14 22 1 22 C1 32.23 1 42.46 1 53 C0.67 53 0.34 53 0 53 C0 42.77 0 32.54 0 22 C-2.97 22 -5.94 22 -9 22 C-9 21.67 -9 21.34 -9 21 C-6.03 21 -3.06 21 0 21 C0 14.07 0 7.14 0 0 Z " fill="#787878" transform="translate(108,241)"/>
<path d="M0 0 C3.3 0 6.6 0 10 0 C10 3.63 10 7.26 10 11 C6.7 11 3.4 11 0 11 C0 7.37 0 3.74 0 0 Z " fill="#F4F4F4" transform="translate(98,188)"/>
<path d="M0 0 C3.3 0 6.6 0 10 0 C10 3.63 10 7.26 10 11 C6.7 11 3.4 11 0 11 C0 7.37 0 3.74 0 0 Z " fill="#0D0D0D" transform="translate(98,18)"/>
<path d="M0 0 C2.57161458 0.03255208 5.14322917 0.06510417 7.71484375 0.09765625 C7.71484375 3.39765625 7.71484375 6.69765625 7.71484375 10.09765625 C4.08484375 10.09765625 0.45484375 10.09765625 -3.28515625 10.09765625 C-3.3828125 3.1640625 -3.3828125 3.1640625 -3.28515625 1.09765625 C-2.28515625 0.09765625 -2.28515625 0.09765625 0 0 Z " fill="#0A0A0A" transform="translate(143.28515625,251.90234375)"/>
<path d="M0 0 C2.57161458 0.03255208 5.14322917 0.06510417 7.71484375 0.09765625 C7.71484375 3.39765625 7.71484375 6.69765625 7.71484375 10.09765625 C4.08484375 10.09765625 0.45484375 10.09765625 -3.28515625 10.09765625 C-3.3828125 3.1640625 -3.3828125 3.1640625 -3.28515625 1.09765625 C-2.28515625 0.09765625 -2.28515625 0.09765625 0 0 Z " fill="#0A0A0A" transform="translate(175.28515625,166.90234375)"/>
<path d="M0 0 C6.93359375 -0.09765625 6.93359375 -0.09765625 9 0 C10 1 10 1 10.09765625 3.28515625 C10.04882812 7.14257812 10.04882812 7.14257812 10 11 C6.7 11 3.4 11 0 11 C0 7.37 0 3.74 0 0 Z " fill="#090909" transform="translate(13,156)"/>
<path d="M0 0 C3.3 0 6.6 0 10 0 C10.09765625 7.71484375 10.09765625 7.71484375 10 10 C9 11 9 11 6.93359375 11.09765625 C3.46679688 11.04882812 3.46679688 11.04882812 0 11 C0 7.37 0 3.74 0 0 Z " fill="#0A0A0A" transform="translate(311,103)"/>
<path d="M0 0 C7.71484375 -0.09765625 7.71484375 -0.09765625 10 0 C11 1 11 1 11.09765625 3.06640625 C11.06510417 5.37760417 11.03255208 7.68880208 11 10 C7.37 10 3.74 10 0 10 C0 6.7 0 3.4 0 0 Z " fill="#0D0D0D" transform="translate(34,103)"/>
<path d="M0 0 C0.8146875 0.00257813 1.629375 0.00515625 2.46875 0.0078125 C3.2834375 0.00523437 4.098125 0.00265625 4.9375 0 C6.96875 0.1328125 6.96875 0.1328125 7.96875 1.1328125 C8.11068337 4.13612268 8.01111378 7.12498384 7.96875 10.1328125 C4.33875 10.1328125 0.70875 10.1328125 -3.03125 10.1328125 C-3.12890625 3.19921875 -3.12890625 3.19921875 -3.03125 1.1328125 C-2.03125 0.1328125 -2.03125 0.1328125 0 0 Z " fill="#080808" transform="translate(292.03125,262.8671875)"/>
<path d="M0 0 C0.8146875 0.00257812 1.629375 0.00515625 2.46875 0.0078125 C3.2834375 0.00523438 4.098125 0.00265625 4.9375 0 C6.96875 0.1328125 6.96875 0.1328125 7.96875 1.1328125 C8.11068337 4.13612268 8.01111378 7.12498384 7.96875 10.1328125 C4.33875 10.1328125 0.70875 10.1328125 -3.03125 10.1328125 C-3.12890625 3.19921875 -3.12890625 3.19921875 -3.03125 1.1328125 C-2.03125 0.1328125 -2.03125 0.1328125 0 0 Z " fill="#0A0A0A" transform="translate(292.03125,102.8671875)"/>
<path d="M0 0 C3.3 0 6.6 0 10 0 C10 3.3 10 6.6 10 10 C6.7 10 3.4 10 0 10 C0 6.7 0 3.4 0 0 Z " fill="#010101" transform="translate(247,295)"/>
<path d="M0 0 C3.3 0 6.6 0 10 0 C10 3.3 10 6.6 10 10 C6.7 10 3.4 10 0 10 C0 6.7 0 3.4 0 0 Z " fill="#FDFDFD" transform="translate(247,284)"/>
<path d="M0 0 C3.3 0 6.6 0 10 0 C10 3.3 10 6.6 10 10 C6.7 10 3.4 10 0 10 C0 6.7 0 3.4 0 0 Z " fill="#020202" transform="translate(247,252)"/>
<path d="M0 0 C3.3 0 6.6 0 10 0 C10 3.3 10 6.6 10 10 C6.7 10 3.4 10 0 10 C0 6.7 0 3.4 0 0 Z " fill="#010101" transform="translate(77,231)"/>
<path d="M0 0 C3.3 0 6.6 0 10 0 C10 3.3 10 6.6 10 10 C6.7 10 3.4 10 0 10 C0 6.7 0 3.4 0 0 Z " fill="#FCFCFC" transform="translate(77,220)"/>
<path d="M0 0 C3.3 0 6.6 0 10 0 C10 3.3 10 6.6 10 10 C6.7 10 3.4 10 0 10 C0 6.7 0 3.4 0 0 Z " fill="#FAFAFA" transform="translate(141,210)"/>
<path d="M0 0 C3.3 0 6.6 0 10 0 C10 3.3 10 6.6 10 10 C6.7 10 3.4 10 0 10 C0 6.7 0 3.4 0 0 Z " fill="#020202" transform="translate(141,199)"/>
<path d="M0 0 C3.3 0 6.6 0 10 0 C10 3.3 10 6.6 10 10 C6.7 10 3.4 10 0 10 C0 6.7 0 3.4 0 0 Z " fill="#FEFEFE" transform="translate(130,199)"/>
<path d="M0 0 C3.3 0 6.6 0 10 0 C10 3.3 10 6.6 10 10 C6.7 10 3.4 10 0 10 C0 6.7 0 3.4 0 0 Z " fill="#010101" transform="translate(45,178)"/>
<path d="M0 0 C3.3 0 6.6 0 10 0 C10 3.3 10 6.6 10 10 C6.7 10 3.4 10 0 10 C0 6.7 0 3.4 0 0 Z " fill="#FCFCFC" transform="translate(34,178)"/>
<path d="M0 0 C3.3 0 6.6 0 10 0 C10 3.3 10 6.6 10 10 C6.7 10 3.4 10 0 10 C0 6.7 0 3.4 0 0 Z " fill="#020202" transform="translate(300,167)"/>
<path d="M0 0 C3.3 0 6.6 0 10 0 C10 3.3 10 6.6 10 10 C6.7 10 3.4 10 0 10 C0 6.7 0 3.4 0 0 Z " fill="#000000" transform="translate(34,167)"/>
<path d="M0 0 C3.3 0 6.6 0 10 0 C10 3.3 10 6.6 10 10 C6.7 10 3.4 10 0 10 C0 6.7 0 3.4 0 0 Z " fill="#FDFDFD" transform="translate(45,146)"/>
<path d="M0 0 C3.3 0 6.6 0 10 0 C10 3.3 10 6.6 10 10 C6.7 10 3.4 10 0 10 C0 6.7 0 3.4 0 0 Z " fill="#010101" transform="translate(279,114)"/>
<path d="M0 0 C3.3 0 6.6 0 10 0 C10 3.3 10 6.6 10 10 C6.7 10 3.4 10 0 10 C0 6.7 0 3.4 0 0 Z " fill="#000000" transform="translate(130,114)"/>
<path d="M0 0 C3.3 0 6.6 0 10 0 C10 3.3 10 6.6 10 10 C6.7 10 3.4 10 0 10 C0 6.7 0 3.4 0 0 Z " fill="#FBFBFB" transform="translate(119,114)"/>
<path d="M0 0 C3.3 0 6.6 0 10 0 C10 3.3 10 6.6 10 10 C6.7 10 3.4 10 0 10 C0 6.7 0 3.4 0 0 Z " fill="#020202" transform="translate(194,93)"/>
<path d="M0 0 C3.3 0 6.6 0 10 0 C10 3.3 10 6.6 10 10 C6.7 10 3.4 10 0 10 C0 6.7 0 3.4 0 0 Z " fill="#FCFCFC" transform="translate(151,82)"/>
<path d="M0 0 C3.3 0 6.6 0 10 0 C10 3.3 10 6.6 10 10 C6.7 10 3.4 10 0 10 C0 6.7 0 3.4 0 0 Z " fill="#000000" transform="translate(215,61)"/>
<path d="M0 0 C3.3 0 6.6 0 10 0 C10 3.3 10 6.6 10 10 C6.7 10 3.4 10 0 10 C0 6.7 0 3.4 0 0 Z " fill="#010101" transform="translate(194,18)"/>
<path d="M0 0 C0.33 0 0.66 0 1 0 C1 3.3 1 6.6 1 10 C7.6 10 14.2 10 21 10 C21 7.03 21 4.06 21 1 C21.33 1 21.66 1 22 1 C22 3.97 22 6.94 22 10 C24.97 10 27.94 10 31 10 C31 10.33 31 10.66 31 11 C28.03 11 25.06 11 22 11 C22 14.3 22 17.6 22 21 C21.67 21 21.34 21 21 21 C21 17.7 21 14.4 21 11 C10.77 11 0.54 11 -10 11 C-9.67 14.63 -9.34 18.26 -9 22 C-9.66 22 -10.32 22 -11 22 C-11 18.37 -11 14.74 -11 11 C-14.3 11 -17.6 11 -21 11 C-21 10.67 -21 10.34 -21 10 C-14.07 10 -7.14 10 0 10 C0 6.7 0 3.4 0 0 Z " fill="#828282" transform="translate(257,284)"/>
<path d="M0 0 C0.33 0 0.66 0 1 0 C1 10.23 1 20.46 1 31 C3.97 31 6.94 31 10 31 C10 31.33 10 31.66 10 32 C7.03 32 4.06 32 1 32 C1 38.6 1 45.2 1 52 C0.67 52 0.34 52 0 52 C0 45.4 0 38.8 0 32 C-6.6 32 -13.2 32 -20 32 C-20 31.67 -20 31.34 -20 31 C-13.4 31 -6.8 31 0 31 C-0.2475 28.586875 -0.2475 28.586875 -0.5 26.125 C-1.29242482 17.28380313 -1.04960794 8.80920952 0 0 Z " fill="#767676" transform="translate(44,146)"/>
<path d="M0 0 C0.33 0 0.66 0 1 0 C1 9.9 1 19.8 1 30 C7.6 30 14.2 30 21 30 C21 30.33 21 30.66 21 31 C14.4 31 7.8 31 1 31 C1 34.3 1 37.6 1 41 C0.67 41 0.34 41 0 41 C0 37.7 0 34.4 0 31 C-3.3 31 -6.6 31 -10 31 C-10 30.67 -10 30.34 -10 30 C-6.7 30 -3.4 30 0 30 C0 20.1 0 10.2 0 0 Z " fill="#696969" transform="translate(140,83)"/>
<path d="M0 0 C0.33 0 0.66 0 1 0 C1 3.3 1 6.6 1 10 C11.23 10 21.46 10 32 10 C32 10.33 32 10.66 32 11 C21.77 11 11.54 11 1 11 C1 13.97 1 16.94 1 20 C0.67 20 0.34 20 0 20 C0 17.03 0 14.06 0 11 C-3.3 11 -6.6 11 -10 11 C-10 10.67 -10 10.34 -10 10 C-6.7 10 -3.4 10 0 10 C0 6.7 0 3.4 0 0 Z " fill="#757575" transform="translate(140,199)"/>
<path d="M0 0 C0.33 0 0.66 0 1 0 C1 10.23 1 20.46 1 31 C3.97 31 6.94 31 10 31 C10 31.33 10 31.66 10 32 C7.03 32 4.06 32 1 32 C1 35.3 1 38.6 1 42 C0.67 42 0.34 42 0 42 C0 38.7 0 35.4 0 32 C-3.3 32 -6.6 32 -10 32 C-10 31.67 -10 31.34 -10 31 C-6.7 31 -3.4 31 0 31 C0 20.77 0 10.54 0 0 Z " fill="#7F7F7F" transform="translate(225,29)"/>
<path d="M0 0 C0.33 0 0.66 0 1 0 C1 3.3 1 6.6 1 10 C7.6 10 14.2 10 21 10 C21 10.33 21 10.66 21 11 C14.4 11 7.8 11 1 11 C1 14.3 1 17.6 1 21 C0.67 21 0.34 21 0 21 C0 17.7 0 14.4 0 11 C-2.97 11 -5.94 11 -9 11 C-9 10.67 -9 10.34 -9 10 C-6.03 10 -3.06 10 0 10 C0 6.7 0 3.4 0 0 Z " fill="#757575" transform="translate(76,220)"/>
<path d="M0 0 C0.33 0 0.66 0 1 0 C1 3.3 1 6.6 1 10 C3.97 10 6.94 10 10 10 C10 10.33 10 10.66 10 11 C7.03 11 4.06 11 1 11 C1 17.6 1 24.2 1 31 C0.67 31 0.34 31 0 31 C0 24.4 0 17.8 0 11 C-2.97 11 -5.94 11 -9 11 C-9 10.67 -9 10.34 -9 10 C-6.03 10 -3.06 10 0 10 C0 6.7 0 3.4 0 0 Z " fill="#828282" transform="translate(310,167)"/>
<path d="M0 0 C0.33 0 0.66 0 1 0 C1 3.3 1 6.6 1 10 C3.97 10 6.94 10 10 10 C10 10.33 10 10.66 10 11 C7.03 11 4.06 11 1 11 C1 17.6 1 24.2 1 31 C0.67 31 0.34 31 0 31 C0 24.4 0 17.8 0 11 C-2.97 11 -5.94 11 -9 11 C-9 10.67 -9 10.34 -9 10 C-6.03 10 -3.06 10 0 10 C0 6.7 0 3.4 0 0 Z " fill="#797979" transform="translate(161,82)"/>
<path d="M0 0 C0.33 0 0.66 0 1 0 C1 6.6 1 13.2 1 20 C3.97 20 6.94 20 10 20 C10 20.33 10 20.66 10 21 C5.05 21.495 5.05 21.495 0 22 C-1.22625047 19.54749907 -1.03425355 18.15689565 -0.87890625 15.4296875 C-0.83056641 14.53378906 -0.78222656 13.63789063 -0.73242188 12.71484375 C-0.67634766 11.77769531 -0.62027344 10.84054688 -0.5625 9.875 C-0.51029297 8.93011719 -0.45808594 7.98523438 -0.40429688 7.01171875 C-0.27443239 4.6741581 -0.1394613 2.33700455 0 0 Z " fill="#CECECE" transform="translate(172,146)"/>
<path d="M0 0 C0.83265381 0.04713135 1.66530762 0.0942627 2.52319336 0.14282227 C3.871875 0.21533203 3.871875 0.21533203 5.24780273 0.28930664 C6.19333008 0.34538086 7.13885742 0.40145508 8.11303711 0.45922852 C9.53712891 0.53753906 9.53712891 0.53753906 10.98999023 0.61743164 C13.34380663 0.74754209 15.6972441 0.88251963 18.05053711 1.02172852 C18.05053711 1.35172852 18.05053711 1.68172852 18.05053711 2.02172852 C11.78053711 2.02172852 5.51053711 2.02172852 -0.94946289 2.02172852 C-0.94946289 4.99172852 -0.94946289 7.96172852 -0.94946289 11.02172852 C-1.27946289 11.02172852 -1.60946289 11.02172852 -1.94946289 11.02172852 C-2.14352767 9.37665634 -2.32954224 7.73063257 -2.51196289 6.08422852 C-2.61637695 5.16770508 -2.72079102 4.25118164 -2.82836914 3.30688477 C-2.86833008 2.5527832 -2.90829102 1.79868164 -2.94946289 1.02172852 C-1.94946289 0.02172852 -1.94946289 0.02172852 0 0 Z " fill="#C2C2C2" transform="translate(24.949462890625,154.978271484375)"/>
</svg>
